<?xml version="1.0" standalone="no"?>
<!DOCTYPE svg PUBLIC "-//W3C//DTD SVG 1.1//EN" "http://www.w3.org/Graphics/SVG/1.1/DTD/svg11.dtd" >
<svg xmlns="http://www.w3.org/2000/svg">
<metadata>
Created by FontForge 20120731 at Mon Nov  2 14:43:58 2015
 By Ads
</metadata>
<defs>
<font id="iconfont" horiz-adv-x="1024" >
  <font-face 
    font-family="iconfont"
    font-weight="500"
    font-stretch="normal"
    units-per-em="1024"
    panose-1="2 0 6 3 0 0 0 0 0 0"
    ascent="812"
    descent="-212"
    x-height="792"
    bbox="-0.333333 -212 1027 813"
    underline-thickness="50"
    underline-position="-100"
    unicode-range="U+0078-E62F"
  />
<missing-glyph horiz-adv-x="374" 
d="M34 0v682h272v-682h-272zM68 34h204v614h-204v-614z" />
    <glyph glyph-name=".notdef" horiz-adv-x="374" 
d="M34 0v682h272v-682h-272zM68 34h204v614h-204v-614z" />
    <glyph glyph-name=".null" horiz-adv-x="0" 
 />
    <glyph glyph-name="nonmarkingreturn" horiz-adv-x="341" 
 />
    <glyph glyph-name="x" unicode="x" horiz-adv-x="1001" 
d="M281 543q-27 -1 -53 -1h-83q-18 0 -36.5 -6t-32.5 -18.5t-23 -32t-9 -45.5v-76h912v41q0 16 -0.5 30t-0.5 18q0 13 -5 29t-17 29.5t-31.5 22.5t-49.5 9h-133v-97h-438v97zM955 310v-52q0 -23 0.5 -52t0.5 -58t-10.5 -47.5t-26 -30t-33 -16t-31.5 -4.5q-14 -1 -29.5 -0.5
t-29.5 0.5h-32l-45 128h-439l-44 -128h-29h-34q-20 0 -45 1q-25 0 -41 9.5t-25.5 23t-13.5 29.5t-4 30v167h911zM163 247q-12 0 -21 -8.5t-9 -21.5t9 -21.5t21 -8.5q13 0 22 8.5t9 21.5t-9 21.5t-22 8.5zM316 123q-8 -26 -14 -48q-5 -19 -10.5 -37t-7.5 -25t-3 -15t1 -14.5
t9.5 -10.5t21.5 -4h37h67h81h80h64h36q23 0 34 12t2 38q-5 13 -9.5 30.5t-9.5 34.5q-5 19 -11 39h-368zM336 498v228q0 11 2.5 23t10 21.5t20.5 15.5t34 6h188q31 0 51.5 -14.5t20.5 -52.5v-227h-327z" />
    <glyph glyph-name="uniE600" unicode="&#xe600;" 
d="M876 677q0 -33 -24 -56.5t-58 -23.5h-511q-34 0 -58 23.5t-24 56.5v54q0 16 6.5 31t17.5 25.5t26 17t32 6.5h511q17 0 32 -6.5t26 -17t17.5 -25.5t6.5 -31v-54zM432 391h444v32q0 33 -24 56.5t-58 23.5h-511q-22 0 -41 -10.5t-30 -29t-11 -40.5v-554q0 -33 24 -56t58 -23
h511q17 0 32 6t26 17t17.5 25.5t6.5 30.5v33h-444v489zM469 -62h407v417h-407v-417zM538 179h99v99h66v-99h99v-66h-99v-98h-66v98h-99v66z" />
    <glyph glyph-name="uniE601" unicode="&#xe601;" 
d="M463 110h-154v128l574 574l141 -141zM348 149h98l522 522l-85 85l-535 -535v-72zM836 -180h-712q-51 0 -87.5 36.5t-36.5 88.5v713q0 52 36.5 88.5t87.5 36.5h491q4 0 7 -1t5 -3t4 -4.5t3 -5.5t1 -6t-1 -6t-3 -5.5t-4 -4.5t-5 -3t-7 -1h-491q-35 0 -60 -25t-25 -60v-713
q0 -23 11.5 -43t31 -31t42.5 -11h712q11 0 22 3t20.5 8.5t17.5 13t13.5 17t8.5 20.5t3 23v364q0 5 2.5 9.5t7 7.5t10.5 3q8 0 13.5 -6t5.5 -14v-364q0 -34 -16.5 -62.5t-45 -45.5t-62.5 -17z" />
    <glyph glyph-name="uniE602" unicode="&#xe602;" horiz-adv-x="1027" 
d="M1007 -58l-242 243q61 99 61 214q0 112 -55.5 207t-150.5 150.5t-207 55.5q-56 0 -109.5 -15t-99 -41.5t-83.5 -64.5t-64.5 -83.5t-41.5 -99t-15 -109.5q0 -112 55.5 -207t150.5 -150.5t207 -55.5q118 0 219 64l241 -242q12 -11 26 -15.5t27 -2t23 11.5l65 65
q14 14 12 36t-19 39zM122 399q0 79 39 146t106 106t146 39q120 0 205 -85.5t85 -205.5q0 -79 -39 -145.5t-105.5 -105.5t-145.5 -39q-122 0 -208 87q-82 86 -83 203z" />
    <glyph glyph-name="uniE603" unicode="&#xe603;" horiz-adv-x="1025" 
d="M416 -8q-8 -7 -17.5 -9.5t-19.5 0t-18 9.5l-350 350q-11 11 -11 27.5t11 27.5l28 27q11 11 27 11t27 -11l268 -268q6 -6 13 -8.5t14.5 -2.5t14.5 2.5t13 8.5l515 515q11 11 27 11t28 -11l27 -27q11 -11 11 -27.5t-11 -27.5z" />
    <glyph glyph-name="uniE604" unicode="&#xe604;" 
d="M193 143q36 -61 108.5 -86t210.5 -25t210.5 25t108.5 86q24 40 40 111t24 140h-766q19 -175 64 -251zM129 394q-35 -5 -56 6l-9 4q-7 4 -8.5 5t-8 4t-8 2.5t-8.5 1.5t-9.5 1t-10.5 0q-4 -1 -6 -3t-3.5 -4.5t-1.5 -5.5v-5l2 -6q0 -2 1 -2.5t14.5 -8.5t17.5 -12l5 -5
q5 -6 8.5 -8.5t13 -8.5t19 -7.5t26.5 -3.5t35 2zM895 394q35 -5 56 6l9 4q7 4 8.5 5t8 4t8 2.5t8.5 1.5t9.5 1t10.5 0q7 -2 9.5 -7.5t1.5 -11.5t-3 -7q-1 -1 -14.5 -9t-17.5 -12l-5 -5q-5 -6 -8.5 -8.5t-13 -8.5t-19 -7.5t-26.5 -3.5t-36 2q2 10 5.5 23.5t5.5 21.5zM577 547
q4 21 4.5 40.5t-3.5 42t-20.5 36t-45.5 13.5q-28 0 -45 -13.5t-21 -36t-3.5 -42t5.5 -40.5q-75 -2 -132.5 -9t-92.5 -17t-57.5 -23t-31.5 -26t-9 -27h774q0 18 -15 33.5t-49 30.5t-100 25t-158 13zM512 583q-7 0 -13 3.5t-9.5 10t-3.5 13.5q0 11 7.5 18.5t18.5 7.5t19 -7.5
t8 -18.5t-8 -19t-19 -8z" />
    <glyph glyph-name="uniE605" unicode="&#xe605;" 
d="M591 258h161v-79h-161v79zM591 137h161v-82h-161v82zM988 812h-953q-14 0 -24.5 -10.5t-10.5 -24.5v-944q0 -15 10.5 -25.5t24.5 -10.5h953q6 0 11.5 2t10 5t7.5 7.5t5 10t2 11.5v944q0 14 -10.5 24.5t-25.5 10.5zM402 614l65 -124l-48 -26q-13 33 -28.5 64.5t-33.5 62.5
zM297 -29h-45v389q-15 -33 -30.5 -61t-31.5 -52q-19 51 -22 56q87 153 121 333l51 -8q-6 -34 -16.5 -70.5t-26.5 -76.5v-510zM424 41q-16 -14 -31 -25l-33 34q25 14 22 56v257h-59v48h107v-313q14 8 37 28q25 16 36 25q0 -1 1 -3.5t2 -4.5q3 -29 9 -40q-42 -31 -91 -62z
M850 363h-163q-11 -12 -23 -22.5t-23.5 -20.5t-24.5 -19h184v-328h-48v46h-161v-46h-45v271q-5 -3 -11 -7t-13 -9t-16 -12q-19 -14 -31 -20q-3 11 -14 28q-9 15 -11 20q99 51 169 119h-147v45h122v96h-96v45h96v85h51v-85h95v-45h-95v-96h19q19 20 36.5 41t33 42.5t29 43.5
t25.5 45l46 -23q-51 -87 -105 -149h121v-45z" />
    <glyph glyph-name="uniE606" unicode="&#xe606;" 
d="M576 580q0 21 -14.5 36t-35.5 15h-476q-20 0 -35 -15t-15 -36v-549h84q0 37 18 68t49 49t67 18q56 0 95 -39.5t39 -95.5h224v503v46zM931 436l-78 98h-243v-503h62q0 37 17.5 68t48.5 49t68 18q55 0 94.5 -39.5t39.5 -95.5h54q7 0 12 3t8 7t4.5 8t1.5 7l1 3v208v56z
M999 273h-204q-15 0 -26 10.5t-11 25.5v76q0 15 11 25.5t26 10.5h125l79 -99v-49zM111 31q0 45 31.5 76.5t75.5 31.5q29 0 54 -14.5t39.5 -39t14.5 -54t-14.5 -54t-39.5 -39t-54 -14.5q-57 0 -89 48q-18 27 -18 59zM698 31q0 45 31.5 76.5t76 31.5t76 -31.5t31.5 -76
t-31.5 -76t-75.5 -31.5q-58 0 -90 48q-18 27 -18 59z" />
    <glyph glyph-name="uniE607" unicode="&#xe607;" horiz-adv-x="1025" 
d="M973 681h-922q-21 0 -36 -15t-15 -36v-674q0 -21 15 -36.5t36 -15.5h922q21 0 36 15.5t15 36.5v674q0 10 -4 19.5t-11 16.5t-16.5 11t-19.5 4zM906 196q0 -29 -20.5 -50t-50.5 -21h-134q-14 0 -27.5 5.5t-23 15t-15 23t-5.5 27.5v69q0 19 9.5 35.5t26 26t35.5 9.5h134
q30 0 50.5 -21t20.5 -50v-69zM945 439h-866v56h866v-56z" />
    <glyph glyph-name="uniE608" unicode="&#xe608;" 
d="M512 806q-82 0 -157 -32t-129 -86t-86 -129t-32 -157q0 -87 35 -180.5t87.5 -167t109.5 -134t104 -93.5t68 -33q19 0 65 33t103.5 94t110.5 135t89 167t36 179q0 66 -20.5 127.5t-57.5 111t-87 87t-111.5 58t-127.5 20.5zM512 207q-82 0 -140 58t-58 140t58 140t140 58
t140 -58t58 -140q0 -53 -26.5 -99t-72 -72.5t-99.5 -26.5z" />
    <glyph glyph-name="uniE609" unicode="&#xe609;" horiz-adv-x="1025" 
d="M512 812q-139 0 -257 -68.5t-186.5 -186.5t-68.5 -257t68.5 -257t186.5 -186.5t257 -68.5t257 68.5t186.5 186.5t68.5 257t-68.5 257t-186.5 186.5t-257 68.5zM765 75q0 -22 -15 -37t-37 -15h-402q-22 0 -37 15t-15 37v192h107v-77q0 -9 4.5 -16t11.5 -11t15 -4h230
q12 0 21.5 9t9.5 22v77h107v-192zM817 351q0 -25 -17.5 -42.5t-42.5 -17.5q-31 0 -49 26q-3 -4 -6 -7.5t-7 -6.5t-8 -5t-8.5 -3.5t-9.5 -2.5t-10 -1q-31 0 -49 26q-8 -12 -21 -19t-28 -7q-31 0 -49 26q-8 -12 -21 -19t-28 -7q-5 0 -10 1t-9.5 2.5t-8.5 3.5t-8 5t-7 6.5
t-6 7.5q-8 -12 -21 -19t-28 -7q-31 0 -49 26q-8 -12 -21 -19t-28 -7q-25 0 -42.5 17.5t-17.5 42.5v2l91 224h428l91 -224v-2z" />
    <glyph glyph-name="uniE60A" unicode="&#xe60a;" 
d="M334 -65h339v-47h-339v47zM383 -162h243v-47h-243v47zM699 -17h-376l-14 11q-11 8 -27.5 22.5t-53.5 58t-66 90.5t-51.5 119t-22.5 146q0 26 4 51t11.5 49.5t19 48t26.5 45.5t34 42.5t41 38.5q60 51 134 79t149 28q47 0 96 -12.5t95.5 -37t84.5 -57.5q33 -28 58 -60.5
t42 -68t26 -74t9 -77.5q0 -75 -21 -146.5t-47.5 -118t-61 -88.5t-49.5 -56t-25 -22zM343 41h336q11 10 26 24t44.5 51.5t52 78.5t40.5 103t18 127q0 66 -30 127t-85 109q-50 43 -113.5 68t-124.5 25q-65 0 -129 -24.5t-116 -69.5q-23 -18 -41 -39t-32 -44t-23.5 -47
t-14.5 -49t-5 -51q0 -182 142 -336q29 -32 55 -53z" />
    <glyph glyph-name="uniE60B" unicode="&#xe60b;" 
d="M903 330h-259q-43 0 -73 30t-30 73v275q0 43 30 73.5t73 30.5h259q28 0 51.5 -14t37.5 -37.5t14 -52.5v-275q0 -43 -30.5 -73t-72.5 -30zM644 750q-8 0 -16 -3.5t-13.5 -9t-8.5 -13t-3 -16.5v-275q0 -8 3 -16t8.5 -13.5t13.5 -8.5t16 -3h259q17 0 29 12t12 29v275
q0 12 -5.5 21.5t-15 15t-20.5 5.5h-259zM372 330h-258q-43 0 -73.5 30t-30.5 73v275q0 43 30.5 73.5t73.5 30.5h258q43 0 73.5 -30.5t30.5 -73.5v-275q0 -43 -30.5 -73t-73.5 -30zM114 750q-17 0 -29.5 -12t-12.5 -30v-275q0 -5 1.5 -9.5t3.5 -8.5t4.5 -7.5t6.5 -6.5t8 -5
t8.5 -3t9.5 -1h258q11 0 20.5 5.5t15.5 15t6 20.5v275q0 12 -6 21.5t-15.5 15t-20.5 5.5h-258zM372 -211h-258q-43 0 -73.5 30.5t-30.5 73.5v275q0 43 30.5 73.5t73.5 30.5h258q43 0 73.5 -30.5t30.5 -73.5v-275q0 -43 -30.5 -73.5t-73.5 -30.5zM114 210q-17 0 -29.5 -12.5
t-12.5 -29.5v-275q0 -8 3.5 -16t9 -13.5t13 -8.5t16.5 -3h258q9 0 16.5 3t13 8.5t9 13.5t3.5 16v275q0 17 -12.5 29.5t-29.5 12.5h-258zM784 -190q-96 0 -164.5 68t-68.5 164t68.5 164t164.5 68t164 -68t68 -164t-68 -164t-164 -68zM783.5 212q-70.5 0 -120 -49.5
t-49.5 -120t49.5 -120.5t120.5 -50q34 0 65.5 13.5t54.5 36.5t36 54.5t13 65.5q0 71 -49.5 120.5t-120 49.5z" />
    <glyph glyph-name="uniE60C" unicode="&#xe60c;" 
d="M0 112q0 -99 70 -169t169 -70q69 0 126.5 36.5t87.5 95.5l230 -40v-6q0 -71 50 -121t120 -50q47 0 86 23t62 62t23 86q0 70 -50 120t-121 50q-33 0 -63.5 -12.5t-54 -34.5t-36.5 -51l-225 40q2 10 3 20.5t1 20.5q0 46 -16.5 87.5t-46.5 74.5l207 208q6 -3 12 -4l12 -4
l12 -2h12q6 -1 13 -1q70 0 120 50t50 120.5t-50 120.5t-120.5 50t-120.5 -50t-50 -121q0 -72 51 -122l-201 -202q-19 11 -38.5 18.5t-41 11.5t-43.5 4q-99 0 -169 -70t-70 -169v0zM0 112z" />
    <glyph glyph-name="uniE60D" unicode="&#xe60d;" 
d="M920 102h-578q-63 0 -72 49l-6 31q-89 502 -100 550q-9 35 -25 35h-115q-9 0 -15.5 6.5t-6.5 16t6.5 16t15.5 6.5h115q6 0 13.5 -2t18.5 -8t21 -21.5t16 -37.5q11 -51 101 -553l6 -31q2 -11 27 -11h578q10 0 16.5 -7t6.5 -16t-6.5 -16t-16.5 -7zM854 286h-584
q-3 0 -6 0.5t-5.5 2t-4.5 3.5t-3.5 4.5t-2.5 5.5t-1 6q0 4 1 7.5t4 6.5l4 4q3 3 6.5 4t7.5 1h584q7 0 12.5 1t10 3t8 4.5t6.5 5t5 5t3 5t2 4.5l1 3q1 1 1 2q60 224 72 263q4 13 0 19q-2 3 -6.5 5t-8.5 3h-762q-5 0 -9 1.5t-7 4.5t-5 7.5t-2 8.5q0 7 3 12t8.5 8t11.5 3h764h2
q32 -3 48 -28q7 -10 9 -22.5t-3 -34.5q-6 -20 -71 -262q-2 -7 -6 -15.5t-12 -17.5t-18 -16.5t-25 -12t-32 -4.5zM388.5 -148q-38.5 0 -66 27.5t-27.5 66.5t27.5 66.5t65.5 27.5q20 0 37 -7.5t29.5 -20t20 -30t7.5 -36.5q0 -39 -27.5 -66.5t-66 -27.5zM388 -5q-13 0 -24 -6.5
t-17.5 -18t-6.5 -24.5q0 -20 14 -34t34 -14q14 0 25 6.5t17.5 17.5t6.5 24q0 31 -28 44q-11 5 -21 5zM810 -148q-15 0 -29.5 5t-26 13.5t-20 20t-13.5 26t-5 29.5q0 39 27.5 66.5t66.5 27.5t66.5 -27.5t27.5 -66.5q0 -25 -12.5 -47t-34 -34.5t-47.5 -12.5zM810 -5
q-20 0 -34.5 -14.5t-14.5 -34.5t14.5 -34t34.5 -14t34.5 14t14.5 34q0 31 -29 44q-10 5 -20 5z" />
    <glyph glyph-name="uniE60E" unicode="&#xe60e;" 
d="M511 772q-103 0 -198 -36.5t-163.5 -98t-109 -147t-40.5 -178.5q0 -142 90 -260l-58 -181l193 60q130 -79 286 -79q104 0 199 36.5t163.5 98t109 146.5t40.5 179q0 62 -18.5 122t-51.5 110.5t-80.5 93t-103.5 72t-122 46t-136 16.5zM78 163l1 -2q-1 0 -1 1v1zM333 260
q-22 0 -37 15t-15 37t15 37t37 15t37 -15t15 -37q0 -14 -7 -26t-19 -19t-26 -7zM511 260q-21 0 -36.5 15t-15.5 37t15.5 37t37 15t37 -15t15.5 -37q0 -14 -7 -26t-19 -19t-27 -7zM689.5 260q-21.5 0 -37 15t-15.5 37t15.5 37t37.5 15q14 0 26 -7t19 -19t7 -26
q0 -22 -15.5 -37t-37 -15z" />
    <glyph glyph-name="uniE60F" unicode="&#xe60f;" 
d="M811 422q37 -1 69 -2t66.5 -2t47.5 -1q25 1 29 17.5t-7.5 33t-24.5 20.5q-93 24 -106 85v3q-1 3 -2 9t-2 11.5t-3 13.5l-5 13q-2 6 -6 12.5t-8 11.5q-7 6 -18 11t-19 7.5t-20.5 5t-13.5 2.5h-3q-10 2 -17.5 5.5t-21 13.5t-25.5 32.5t-21 54.5q-3 10 -14 19t-23.5 13
t-22.5 -3t-11 -26q0 -32 5 -183q61 -22 108 -69q23 -24 40.5 -51t28.5 -57zM219 184q-62 2 -113.5 3.5t-69.5 1.5q-25 -1 -29 -17.5t7.5 -33t24.5 -20.5q32 -9 54.5 -21t32.5 -25.5t13.5 -21t5.5 -17.5v-3q0 -1 2.5 -13.5t5 -20.5t7.5 -19t11.5 -17.5t17.5 -11.5t19 -7.5
t20.5 -5t13.5 -2.5h3q10 -2 17.5 -5.5t21 -13.5t25.5 -32.5t21 -54.5q3 -10 14 -19t23.5 -13t22.5 3t11 27q0 17 -1.5 67.5t-3.5 114.5q-30 11 -57 28.5t-51 40.5q-47 47 -69 108zM710.5 498.5q-43.5 43.5 -100 63.5t-114.5 15l293 -293q5 58 -15 114.5t-63.5 100z
M324.5 113q43.5 -43 99 -63.5t114.5 -16.5l-293 293q-4 -59 16 -114.5t63.5 -98.5zM325 498q-27 -26 -44.5 -57.5t-27.5 -66.5l333 -332q72 18 124 71q26 25 44 56.5t27 65.5l-334 334q-17 -5 -33 -11.5t-31.5 -15t-30 -20t-27.5 -24.5z" />
    <glyph glyph-name="uniE610" unicode="&#xe610;" 
d="M409 568q-85 0 -145.5 -71t-60.5 -172q3 -25 10 -65t28.5 -131.5t43.5 -144.5q38 -88 119 -141.5t170 -53.5q84 0 130.5 59.5t34.5 135.5q-5 31 -13 52t-14 31t-10.5 37.5t-4.5 74.5q0 39 5.5 64t15 39t19.5 24t22.5 27t20.5 41q13 33 3 67.5t-31.5 62.5t-58.5 46t-78 18
h-206zM656 690q0 -33 14 -61t37.5 -44.5t51.5 -16.5q43 0 73 36t30 86.5t-30 86t-72.5 35.5t-73 -35.5t-30.5 -86.5zM553 666q13 0 24.5 5.5t19.5 15.5t13 23.5t5 28.5q0 20 -8.5 36.5t-22.5 26.5t-31 10q-25 0 -43.5 -21.5t-18.5 -51.5t18.5 -51.5t43.5 -21.5zM388 617
q17 0 31.5 10t22.5 26.5t8 36.5q0 12 -3 23t-8.5 20t-13.5 16t-17.5 10.5t-19.5 3.5q-25 0 -43 -21.5t-18 -51.5q0 -10 2 -19.5t6 -17.5t9.5 -14.5t12.5 -11.5t15 -7.5t16 -2.5zM224 666q-9 0 -17 -2.5t-14.5 -7.5t-12.5 -11.5t-10 -14.5t-6 -17.5t-2 -19.5q0 -30 18 -51.5
t44 -21.5q16 0 30.5 9.5t22.5 26.5t8 37q0 30 -18 51.5t-43 21.5zM224 666z" />
    <glyph glyph-name="uniE611" unicode="&#xe611;" 
d="M508 165q-24 -74 -74 -74h-227q-52 0 -74 74l-133 538q0 31 21.5 52.5t52.5 21.5h498q31 0 52.5 -21.5t21.5 -52.5zM481 -103q0 -27 -19 -46t-46 -19h-195q-9 0 -17.5 2.5t-15.5 6.5t-13 10t-10 13.5t-6.5 15.5t-2.5 17v72q0 27 19 46t46 19h195q27 0 46 -19t19 -46v-72z
M1024 -103q0 -17 -8.5 -32t-23.5 -24t-33 -9h-343q-10 0 -20 3.5t-18 9.5t-14 14t-9.5 18t-3.5 20v141q0 26 19 45t46 19h343q27 0 46 -19t19 -45v-141zM943 206q0 10 -3 20t-9 18t-14 13.5t-17.5 9t-20.5 3.5h-174q-13 0 -25 -5t-20.5 -13.5t-13.5 -20.5t-5 -25v-37v-4h302
v4v37z" />
    <glyph glyph-name="uniE612" unicode="&#xe612;" horiz-adv-x="1025" 
d="M796 -167q-16 0 -35 9l-212 112q-7 4 -17 5.5t-20 1.5t-20 -1.5t-17 -5.5l-212 -112q-22 -11 -42 -8.5t-33 17.5q-4 5 -7 11.5t-5 18t1 24.5l40 236q3 17 -4 38t-19 33l-171 167q-31 30 -20.5 62.5t53.5 38.5l237 35q10 1 22.5 8t22.5 16.5t15 18.5l106 215q19 39 53 39
t53 -39l106 -215q8 -14 26 -27.5t34 -15.5l238 -35q42 -6 52.5 -38.5t-20.5 -62.5l-171 -167q-12 -12 -19 -33.5t-4 -37.5l40 -236q4 -19 0 -32.5t-11 -21.5q-15 -18 -40 -18zM512 23q38 0 66 -15l208 -109l-40 232q-2 15 -0.5 32.5t7 34t14.5 32t20 26.5l169 164l-233 34
q-32 5 -62.5 27t-44.5 50l-104 211l-104 -211q-5 -9 -11.5 -18t-15 -17t-18 -15t-20 -12.5t-21 -9t-20.5 -5.5l-233 -34l168 -164q23 -22 34.5 -58t6.5 -67l-40 -232l208 109q28 15 66 15z" />
    <glyph glyph-name="uniE613" unicode="&#xe613;" 
d="M866 812h-708q-36 0 -62 -26t-26 -62v-847q0 -37 26 -63t62 -26h708q36 0 62 26t26 63v847q0 36 -26 62t-62 26zM790 79h-556v55h556v-55zM790 272h-556v56h556v-56zM790 466h-556v55h556v-55z" />
    <glyph glyph-name="uniE614" unicode="&#xe614;" 
d="M802 -203h-577q-51 0 -87.5 36.5t-36.5 87.5v579q0 8 6 14t14 6q3 0 6 -1t5.5 -3t4 -4t2.5 -5t1 -7v-579q0 -35 25 -60t60 -25h577q23 0 42.5 11.5t31 31t11.5 42.5v579q0 8 5.5 14t13.5 6q6 0 10.5 -2.5t7 -7t2.5 -10.5v-579q0 -64 -53 -101q-32 -22 -71 -23zM387 -41
q-8 0 -14 6t-6 14v521q0 6 3 10.5t7.5 7t9.5 2.5q8 0 13.5 -6t5.5 -14v-521q0 -8 -5.5 -14t-13.5 -6zM643 -41q-8 0 -13.5 6t-5.5 14v521q0 8 5.5 14t14 6t14 -6t5.5 -14v-521q0 -6 -2.5 -10.5t-7 -7t-10.5 -2.5zM290 671h-270q-9 0 -14.5 5.5t-5.5 14t5.5 14t14.5 5.5h254
l102 102h276l99 -99h253q4 0 7.5 -1.5t6.5 -4.5t4.5 -6.5t1.5 -7.5q0 -3 -1 -5.5t-2 -4.5t-3 -3l-4 -4q-2 -1 -4.5 -1.5t-5.5 -0.5h-269l-100 99h-243z" />
    <glyph glyph-name="uniE615" unicode="&#xe615;" 
d="M512 812q-70 0 -136 -18.5t-122.5 -51.5t-103.5 -80t-80 -103.5t-51.5 -122.5t-18.5 -136q0 -104 40.5 -199t109 -163.5t163.5 -109t199 -40.5t199 40.5t163.5 109t109 163.5t40.5 199q0 83 -26 161.5t-73 141.5t-110 110t-141.5 73t-161.5 26zM762 103q0 -16 -11 -28
t-26 -12h-426q-7 0 -14 3t-12 8.5t-8 13t-3 15.5v51h500v-51zM762 178h-500v359h500v-359zM512 320q64 0 109 45t45 109h-24q0 -21 -6.5 -41t-18.5 -36t-28 -28t-36 -18.5t-41 -6.5q-54 0 -92 38t-38 92h-24q0 -64 45 -109t109 -45z" />
    <glyph glyph-name="uniE616" unicode="&#xe616;" horiz-adv-x="1025" 
d="M242 812q-100 0 -171 -71t-71 -171t71 -170.5t171 -70.5h241v241q0 100 -70.5 171t-170.5 71zM1024 570q0 100 -70.5 171t-170.5 71t-171 -71t-71 -171v-241h242q100 0 170.5 70.5t70.5 170.5zM783 -212q100 0 170.5 71t70.5 171t-70.5 170.5t-170.5 70.5h-242v-241
q0 -66 32.5 -121.5t88 -88t121.5 -32.5zM0 30q0 -100 71 -171t171 -71t170.5 71t70.5 171v241h-241q-100 0 -171 -70.5t-71 -170.5z" />
    <glyph glyph-name="uniE617" unicode="&#xe617;" 
d="M977 156l-84 48q11 47 11 95.5t-11 96.5l84 48q14 8 18.5 24t-4.5 30l-67 116q-8 14 -23.5 18.5t-29.5 -3.5l-85 -49q-71 69 -165 95v98q0 8 -3 15t-8.5 12.5t-12.5 8.5t-15 3h-135q-16 0 -27.5 -11.5t-11.5 -27.5v-98q-31 -9 -60.5 -22.5t-55.5 -32t-49 -40.5l-85 49
q-14 8 -29.5 3.5t-23.5 -18.5l-68 -116q-5 -10 -5 -20t5 -19t15 -15l84 -48q-3 -12 -5 -23.5t-3.5 -23.5t-2.5 -24.5t-1 -24.5q0 -49 12 -96l-85 -48q-13 -8 -17.5 -24t3.5 -30l68 -116q8 -14 23.5 -18.5t29.5 3.5l85 49q34 -33 76 -57.5t89 -37.5v-98q0 -16 11.5 -27.5
t27.5 -11.5h135q10 0 19 5t14.5 14t5.5 20v98q94 26 165 95l85 -49q14 -8 29.5 -3.5t23.5 18.5l67 116q9 14 4.5 30t-18.5 24zM514.5 113q-77.5 0 -132.5 55t-55 132t55 132t132.5 55t132 -55t54.5 -132t-54.5 -132t-132 -55z" />
    <glyph glyph-name="uniE618" unicode="&#xe618;" 
d="M857 406q-258 302 -545 194q19 -35 34 -73t27 -93.5t13.5 -109.5t-13 -119.5t-47.5 -127.5q69 -24 135 -24q45 0 92.5 13t86.5 34t75.5 46.5t64.5 51t48.5 46.5t31.5 34l11 14l142 -81v260zM258 577q-44 -23 -86.5 -54.5t-72 -60.5t-52.5 -55t-35 -41l-11 -15l1 -8
q8 -9 17.5 -18t23.5 -21t28 -20t29 -14.5t30 -6t27 7.5l4 -14q-50 -31 -145 52q6 -35 85 -102.5t171 -106.5q32 68 43 139t2.5 133.5t-23 110.5t-36.5 94zM183 341q-8 0 -15.5 3t-13 8.5t-8.5 13t-3 15.5q0 16 11.5 28t28.5 12q11 0 20 -5.5t14.5 -14.5t5.5 -20t-5.5 -20.5
t-14.5 -14.5t-20 -5z" />
    <glyph glyph-name="uniE619" unicode="&#xe619;" horiz-adv-x="1025" 
d="M784 -111h-209q-5 0 -10 3t-8 7.5t-3 10.5v272h-84v-272q0 -9 -6.5 -15t-15.5 -6h-209q-43 0 -74 31t-31 75v332h-113q-14 0 -19.5 13.5t5.5 23.5l491 443q14 12 28 0l491 -443q2 -3 3.5 -5.5t2.5 -5.5t1 -6.5t-2 -6.5q-5 -13 -19 -13h-113v-332q0 -44 -31 -75t-75 -31z
M597 -69h187q27 0 45.5 18.5t18.5 45.5v353v4l2 4q0 2 1.5 3.5t2.5 3t3 3t4 2.5h4q2 1 4 1h79l-436 393l-436 -393h79q6 0 10.5 -3t7.5 -7.5t3 -10.5v-353q0 -27 18.5 -45.5t44.5 -18.5h188v272q0 9 6.5 15t14.5 6h127q6 0 11 -3t8 -7.5t3 -10.5v-272z" />
    <glyph glyph-name="uniE61A" unicode="&#xe61a;" 
d="M312 641q42 -14 80.5 -10t65 14t29 16.5t-10.5 30.5t-43 53.5t-67 43.5q-42 14 -81 10.5t-65 -13.5t-29 -17q-3 -10 9.5 -34t43.5 -52t68 -42zM369 400zM530 537q-6 0 -11 2.5t-8 7t-3 10.5q-2 26 1.5 54.5t15 62t30.5 61t52.5 49t76.5 28.5q9 1 16.5 -4.5t8.5 -13.5v-6
q0 -2 -0.5 -4.5t-2 -4.5t-3 -3.5t-3.5 -3t-4.5 -2.5t-4.5 -2q-27 -4 -49 -15t-36 -26.5t-25 -32.5t-16.5 -36.5t-8.5 -34.5t-4 -30.5t-1 -22t1 -10.5q0 -6 -2.5 -11t-7.5 -8.5t-11 -3.5h-1zM682 550q-9 0 -22 -2.5t-28.5 -8t-28.5 -10t-32 -12.5t-28 -12t-26.5 -12t-19.5 -9
q-40 18 -61 27t-64.5 24t-64.5 15q-84 0 -143 -43.5t-85.5 -113.5t-26.5 -160q0 -17 2 -34.5t6 -35.5q26 -160 149 -266.5t287 -106.5q163 0 286 105.5t150 264.5q4 19 6.5 37t2.5 36q0 90 -27.5 160t-87 113.5t-144.5 43.5zM317 423q-1 -1 -4 -3t-10 -8t-14 -13t-16 -18
t-17 -23.5t-16 -30t-14 -36.5t-10.5 -43.5t-5.5 -50.5q0 -11 -8 -19t-19 -8l-1 1q-12 0 -19.5 8.5t-7.5 19.5q3 55 17.5 103t31.5 76t39 51.5t31 30t16 10.5q4 3 9.5 3.5t10.5 -0.5t9.5 -4.5t7.5 -8.5q6 -9 3 -20t-13 -17z" />
    <glyph glyph-name="uniE61B" unicode="&#xe61b;" 
d="M824 773q-3 13 -12 21.5t-20.5 11.5t-24.5 0l-306 -84q-18 -5 -38 -20t-30 -32l-326 -566q-10 -16 -5 -34.5t22 -28.5l422 -244q16 -9 35 -4t28 21l327 566q9 16 12.5 41t-1.5 44zM612.5 469.5q-28.5 16.5 -37.5 48.5t7.5 61t49 37.5t61 -8.5t37.5 -49t-7.5 -60.5
t-49 -37t-61 8z" />
    <glyph glyph-name="uniE61C" unicode="&#xe61c;" 
d="M512 810q-70 0 -136 -18t-122 -51t-103.5 -80.5t-80 -103.5t-51 -122t-18.5 -136q0 -104 40.5 -198.5t109 -163t163 -109t198.5 -40.5t198.5 40.5t163 109t109 163t40.5 198.5q0 52 -10.5 103t-29.5 96.5t-47 86.5t-62.5 75.5t-76 62.5t-86.5 47t-96 29.5t-103 10.5z
M671 64h-422q-15 0 -21 10.5t-4 20.5l1 11q14 81 76 136.5t145 60.5q-29 4 -53 20.5t-38 42.5t-14 56q0 49 35.5 84t84.5 35q33 0 60.5 -16t43.5 -43.5t16 -59.5q0 -46 -30 -79.5t-75 -39.5q82 -5 143.5 -59.5t77.5 -134.5q1 0 2.5 -11t-4.5 -22.5t-24 -11.5zM785 100h-46
q0 11 -3 21q-6 35 -22 66.5t-39 56.5t-52.5 44t-62.5 29q19 12 32.5 29.5t21 39t7.5 44.5q0 48 -29.5 84.5t-75.5 47.5q28 16 59 16q50 0 85 -35t35 -85q0 -45 -30 -79t-75 -40q82 -5 143.5 -59.5t77.5 -133.5q3 -4 2 -21q-2 -25 -28 -25z" />
    <glyph glyph-name="uniE61D" unicode="&#xe61d;" 
d="M504.5 443q14.5 0 25 10t10.5 25q0 10 -5 18t-13 13t-18 5q-14 0 -24.5 -10.5t-10.5 -25.5t10.5 -25t25 -10zM574.5 319q-14.5 0 -24.5 -10t-10 -25t10 -25t24.5 -10t25 10t10.5 25t-10.5 25t-25 10zM283 514q-9 0 -17 -5t-13 -13t-5 -18q0 -15 10.5 -25t24.5 -10
q8 0 14.5 2.5t11 7.5t7 11.5t2.5 13.5q0 15 -10 25.5t-25 10.5zM755 319q-14 0 -24.5 -10t-10.5 -25q0 -10 4.5 -18t13 -12.5t17.5 -4.5q7 0 13.5 2.5t11.5 7.5t7.5 11.5t2.5 13.5q0 10 -4.5 18t-12.5 12.5t-18 4.5zM987 812h-952q-14 0 -24.5 -10.5t-10.5 -24.5v-943
q0 -15 10.5 -25.5t24.5 -10.5h952q10 0 18 5t13 13t5 18v943q0 14 -10.5 24.5t-25.5 10.5zM396 144q-56 0 -107 18l-80 -54q-9 -5 -13 -3.5t-6 3.5t-2 6v6q0 2 1 3l21 80q-48 36 -76 86t-28 107q0 69 39 127t105.5 91.5t145.5 33.5q108 0 189.5 -61.5t96.5 -153.5
q-10 1 -16 1q-54 0 -103.5 -19t-85.5 -50.5t-57.5 -75t-21.5 -91.5q0 -7 0.5 -13.5t1.5 -13.5t2.5 -13.5t2.5 -12.5q-1 0 -4 -0.5t-5 -0.5zM831 34l16 -60q1 -9 -2.5 -11t-7.5 0l-4 2l-56 38q-52 -23 -111 -23q-87 0 -154.5 47t-87.5 119q-8 25 -8 52q0 90 73.5 154
t176.5 64q8 0 18 -1q98 -6 165 -68.5t67 -148.5q0 -95 -80 -160q-3 -2 -5 -4z" />
    <glyph glyph-name="uniE61E" unicode="&#xe61e;" 
d="M510 -211q128 0 241 52.5t194 145.5q-19 36 -66.5 71.5t-104 63t-119.5 48.5q-3 1 -7 3t-10.5 9.5t-10 17.5t-2.5 28t8 40q34 35 60 81t42 100.5t16 107.5q0 80 -34 139.5t-87.5 87.5t-120 28t-120 -28t-87 -87.5t-33.5 -139.5t33 -158t85 -132q8 -19 8 -36t-4.5 -27
t-11.5 -18t-12.5 -11.5t-9.5 -4.5q-95 -35 -175 -83.5t-108 -99.5q130 -148 321 -187q57 -11 115 -11z" />
    <glyph glyph-name="uniE61F" unicode="&#xe61f;" 
d="M798 -32h-325q-29 0 -49.5 20.5t-20.5 49.5v577l117 -117q4 -4 9.5 -5.5t11 0t9.5 5.5q6 6 6 14.5t-6 14.5l-166 165l-173 -173q-6 -6 -6 -14.5t6 -14.5q3 -3 7 -4.5t8 -1.5q8 0 14 6l122 122v-574q0 -30 14.5 -55.5t40.5 -40.5t56 -15h325q8 0 14.5 6t6.5 14.5
t-6.5 14.5t-14.5 6zM865 812h-706q-66 0 -112.5 -46.5t-46.5 -112.5v-696q0 -65 46.5 -111.5t112.5 -46.5h706q65 0 111.5 46.5t46.5 111.5v696q0 66 -46.5 112.5t-111.5 46.5zM982 -43q0 -48 -34.5 -82.5t-82.5 -34.5h-706q-49 0 -83.5 34.5t-34.5 82.5v696q0 49 34.5 83.5
t83.5 34.5h706q48 0 82.5 -34.5t34.5 -83.5v-696z" />
    <glyph glyph-name="uniE620" unicode="&#xe620;" 
d="M510 278q-110 0 -188.5 78t-78.5 188.5t78.5 189t189 78.5t188.5 -78.5t78 -188.5q0 -73 -35.5 -134.5t-97 -97t-134.5 -35.5zM510 767q-92 0 -157 -65t-65 -157t65 -157t157 -65t157 65t65 157q0 60 -30 111t-81 81t-111 30zM939 -212h-862q-37 0 -57 25q-26 33 -14 88
q21 121 93 217.5t180 150.5t231 54q121 0 228 -53t179.5 -148t95.5 -213q2 -7 3.5 -15t2.5 -22t-2.5 -28.5t-12.5 -26.5q-21 -29 -65 -29zM510 278q-170 0 -300 -109t-160 -277q-7 -35 6 -51q6 -8 21 -8h862q21 0 29 11q13 17 2 52l-1 3q-8 41 -22.5 79.5t-35 72.5t-47 64.5
t-56.5 55.5t-65 45t-72.5 33.5t-78 21t-82.5 7.5z" />
    <glyph glyph-name="uniE621" unicode="&#xe621;" 
d="M938 31q-17 43 -45 82t-65.5 70.5t-82.5 55t-97.5 38t-107.5 17.5v107q74 10 123.5 67t49.5 133q0 83 -59 142.5t-143 59.5t-143 -59.5t-59 -142.5q0 -31 8.5 -59t24 -51.5t37 -42.5t48 -31t55.5 -16v-107q-139 -8 -247.5 -80.5t-150.5 -182.5q-37 -12 -60.5 -43
t-23.5 -71q0 -50 35.5 -85.5t85 -35.5t85 35.5t35.5 85.5q0 46 -31 80t-77 39q42 90 136.5 148.5t212.5 65.5v-217q-26 -6 -47 -23t-32.5 -41t-11.5 -52q0 -33 16 -60.5t43.5 -44t60.5 -16.5q50 0 85 35.5t35 85.5q0 21 -7 40t-19 34.5t-29 26t-36 15.5v217
q118 -7 212.5 -65.5t136.5 -148.5q-18 -2 -34.5 -9t-29.5 -18t-23 -25.5t-15 -31.5t-5 -35q0 -50 35 -85.5t85 -35.5t85.5 35.5t35.5 85.5q0 26 -11 49.5t-30.5 40.5t-43.5 24z" />
    <glyph glyph-name="uniE622" unicode="&#xe622;" horiz-adv-x="1025" 
d="M256 747q-50 0 -95.5 -21.5t-81 -60.5t-57 -100.5t-22.5 -136.5q0 -59 43 -139t109 -154t138 -139t135.5 -104t95.5 -39q26 0 86 39.5t130.5 105t135.5 140t108.5 154.5t42.5 139q0 74 -21.5 134.5t-57.5 98.5t-81 58t-95 20q-51 0 -98.5 -20.5t-89.5 -64.5t-69 -106
q-9 22 -20.5 41.5t-23.5 36.5t-26 31.5t-28 26.5t-29.5 21.5t-31.5 16.5t-32 12t-32.5 7.5t-32.5 2.5v0zM256 747z" />
    <glyph glyph-name="uniE623" unicode="&#xe623;" 
d="M512 812q-104 0 -199 -40.5t-163.5 -109t-109 -163.5t-40.5 -199t40.5 -199t109 -163.5t163.5 -109t199 -40.5t199 40.5t163.5 109t109 163.5t40.5 199t-40.5 199t-109 163.5t-163.5 109t-199 40.5zM328 548h131q10 0 16.5 -7t6.5 -16v-70q0 -7 -3 -12.5t-8.5 -8.5
t-11.5 -3h-131v117zM328 408h294q10 0 17 -7t7 -17v-70q0 -5 -2 -9t-5 -7.5t-7.5 -5t-9.5 -1.5h-294v117zM328 267h459q9 0 16 -6.5t7 -16.5v-70q0 -10 -7 -17t-16 -7h-459v117zM830 73h-572v475h44v-428h528v-47z" />
    <glyph glyph-name="uniE624" unicode="&#xe624;" 
d="M467 165h282v-116h-282v116zM989 812h-954q-14 0 -24.5 -10.5t-10.5 -24.5v-945q0 -14 10.5 -24.5t24.5 -10.5h954q14 0 24.5 10.5t10.5 24.5v945q0 14 -10.5 24.5t-24.5 10.5zM312 -32h-51v386q-17 -30 -34 -56t-34 -48q-4 10 -7.5 20t-7.5 19t-7 17q101 147 152 330
l54 -17q-1 -2 -2 -5l-2 -4q-1 -3 -2.5 -6.5t-2.5 -6.5q-20 -59 -56 -141v-488zM803 -32h-54v39h-282v-39h-54v245h390v-245zM808 275h-400v48h400v-48zM808 385h-400v48h400v-48zM851 495h-483v48h226q-9 19 -18 37t-19 37l45 22q3 -5 6.5 -10.5t7.5 -13t9 -15.5
q2 -5 4 -9.5t4 -8t3.5 -7.5t3 -7t3 -5.5t2.5 -5.5l-31 -14h237v-48z" />
    <glyph glyph-name="uniE625" unicode="&#xe625;" horiz-adv-x="1028" 
d="M1024 493q2 -3 3 -2q-2 3 -3 2zM990 547h1l-6 7zM960 600q1 -3 7.5 -14t8.5 -15v-1l4 -4l-2 5q-2 3 -3.5 5.5t-3.5 5t-3 4.5l-4 6l-2 4zM948 630l-1 1q2 -2 5 -7q0 1 -1 1q0 1 -3 5zM951 625zM937 650l4 -7q0 1 -1.5 4.5t-0.5 1.5l-4 5q0 -1 2 -4zM931 656l3 -3zM939 645
l-5 8v-1q0 -1 2 -3zM941 640l1 -2l-1 -1q3 -5 5 -7q-1 4 -5 10zM957 601l2 -5l4 -5q-1 1 -3 6q-3 5 -3 4zM912 696v-2v-2l3 -5zM912 692l-5 8zM928 656l9 -12l-10 15zM894 727l4 -4l-6 7zM883 747v1l1 1q-3 6 -10 14q5 -7 9 -16zM869 770q1 -2 2 -3.5t3 -3.5q-1 2 -2 3.5
t-3 3.5zM899 714q0 3 -2 7v-4l1 -1zM897 717q-1 1 -2 4l-2 3q1 -1 2 -3zM900 713l-1 1q0 -1 1 -1zM917 678q0 1 -2 3l-4 5l1 -4q1 -1 2 -0.5t3 -3.5zM900 708l5 -9q1 1 1 0zM898 712l2 -4l-1 3zM877 754q-3 3 -8 12q4 -7 8 -15q2 -1 1 0q0 1 -1 3zM887 736h-1v1zM832 804h2
v1zM877 750q2 -4 5 -7l-5 8v-1zM862 782q0 -2 1 -3.5t2 -3.5q-2 6 -3 7zM886 738zM886 738q-1 2 -3 4q-1 0 -1 1q3 -4 4 -6v1zM821 788q0 4 18 11q2 1 2 2q2 -2 2 1q1 1 0 4q-3 0 -9 -2l-2 -2q-1 0 -3.5 -2t-4.5 -4q0 1 4 2q2 1 5 3l2 1q9 4 3 0q-8 -6 -11 -7h-2l-4 -2
q3 1 -4 -4q-7 -6 -5 -6l9 6v-1v0zM853 795l2 -4q-1 1 -2 3.5t-1.5 4t-2.5 5.5l-3 6l-2 2l-6 -4q-2 -2 -3 -2l-1 -1l10 5l10 -17zM864 775l-4 4q-4 4 -3 1q4 -6 6 -8.5t3 -4.5l-3 6h1l1 -2l-1 4q2 -3 5 -9q-2 4 -4 9v0v-1v1h-1v1l1 -1v0l-10 16q2 -5 9 -16zM905 689v1v-1z
M902 696q3 -3 4 -5v-2l-1 1l1 -1l1 1l-1 1l-6 15q0 -4 2 -10zM882 736l-8 14l3 -8v1q3 -6 5 -7v0zM830 803l2 3q-2 -1 -6 -5l-3 -3zM811 792v1l-4 -3zM121 133l2 -4zM104 162h-1h1zM373 543q-2 0 -5 -1l-8 -4h3zM76 366h1l1 1l2 2l1 1q-3 -2 -5 -4zM75 359l-8 -3zM219 42
l4 4l-4 -4v0zM628 688q-2 -1 -4.5 -2.5t-4.5 -2.5l-4 -2q13 6 13 7zM102 137l3 -3q-3 4 -3 3zM601 673l1 1h1q7 5 12 7q-4 -1 -7.5 -3t-6.5 -5zM798 369v1h2q-1 0 -2 -1zM973 454q0 -1 -2 -2q-3 -2 -5 -2q2 0 7 4zM739 752zM760 758l-1 -1v-1q0 1 1 2zM567 645zM745 755
q-1 -1 -5 -3l1 1zM744 755l3 1q1 1 -3 -1zM734 749q5 3 6 3h-1q-1 -1 -2.5 -1.5t-2.5 -1.5zM490 190v1h1zM281 476v0v0zM268 467q5 5 13 9h-7zM161 63l-5 10q3 -4 8 -10l1 1q-1 0 -3 2.5t-4.5 6.5t-5 9t-5 9t-5 6.5t-3.5 2.5l-2 7q1 -3 2 -4q-3 6 -7.5 11t-8.5 13l-3 7l1 -1
l-8 12l1 -1l-11 19v-1q-1 2 -3 4l-2 4l-3 3v1l2 -2l-7 10v1l8 -11q-1 4 -2 6.5t-2.5 4.5t-4.5 7t-7 12l6 -10q0 3 -1.5 6t-2.5 6t-3.5 7t-3.5 8q0 -1 1 -4q5 -13 3 -12l-2 3q-3 6 -8 13q1 0 -5 10l-2 4h2q-2 3 -3.5 5t-2.5 3l-3 3q-4 8 -4 14l-3 5v-2q1 -3 0 -3l-4 6
q-5 11 -20 34q1 1 0 2l-5 7v1q-1 2 -2 2.5t-1.5 0.5t-1.5 1l-3 5q-2 1 -4 7l8 3q3 1 6 3t5 3v-2q3 2 6.5 4.5t5.5 3.5l2 2q2 1 3.5 2.5t3.5 2.5t5 4l13 6q-9 -4 4 7l5 3q-6 -2 -8 -3l15 10q0 -1 -2 -3l1 2h2q5 2 3 0l-3 -3l-6 -2q-3 -3 -4.5 -5t-0.5 -2q1 1 2.5 1.5t2.5 1.5
l-1 -1q1 0 5 3h4l1 2l20 10q35 26 46 33q-2 -3 1 -5q-4 -1 -14 -7.5t-15 -9.5l5 2l-1 -1l20 13h1q1 0 4.5 2t5.5 2q-4 1 4 6q3 1 8 4q8 5 10 7q2 -1 -6 -6q-2 -1 -5 -3q4 2 7.5 4t5.5 4t5 4.5t7 3.5q-4 -2 -4 -3l17 9l-2 -1q50 27 52 33l-1 -5l25 24l3 -3q4 -4 -5 -8
q9 4 17 10h-5l1 1q2 1 21 8q-2 -1 -2 0q2 4 7 8q0 -1 1 -2.5t-1 -2.5l15 12q-3 -2 0 -2q2 0 4 1q3 0 19 10l-8 -3q10 5 17.5 12t16.5 12q-4 -3 0 -4q2 0 6 2q0 1 1 2l2 2l3 2l2 3q1 1 2.5 3t3 3.5t3.5 3t4 3.5t4.5 3.5t4.5 2.5l3 1l12 8q-14 -15 -35 -32l3 1q1 1 1.5 1
t2.5 1t5 3q3 1 -3 -3q-2 -1 -5 -3l24 13q-1 1 3.5 4t8.5 6l4 3l-25 -16q-2 1 10 10q9 7 19 12q3 1 0 -3l-1 -2q2 1 9 5.5t8 5.5l-6 -5q4 2 11.5 7.5t14.5 7.5q1 1 4.5 2.5t6 2t2.5 1.5q-4 -1 -6.5 0.5t-3 3.5t0.5 4q22 10 26 11t1 -3l-2 -4l1 1q2 2 4 3q1 0 2 -0.5t6 3.5
q0 1 8 5q2 1 -1 0q-2 0 -4 -2l10 6q5 3 10 5q-5 -1 8 10q4 3 7 5h3q4 2 8 4.5t7.5 4t7 3.5t7 3.5t7 3.5t7.5 5q1 0 3 1q4 1 4 0q7 5 10 7q5 2 -2 -2q-3 -2 -3 -2.5t2 0.5l19 13q-2 0 -8.5 -4t-15.5 -10q0 1 3 4.5t9.5 8t14.5 10.5l9 4v-1q11 6 17 11t11 8.5t14 7.5q4 0 5 -1
v-1q-6 -4 -14.5 -8t-11.5 -5l10 4q-3 -2 -7.5 -4.5t-7.5 -4.5q2 1 6.5 3t9.5 5t12 7l12 6l14 8q6 3 11 6l6 5l-7 -4q-3 0 3 5q19 13 29 18h3q-2 1 -11 -6q1 1 3.5 2t5.5 2l6 4q3 1 5 2.5t4 2.5l-9 -3q1 1 4.5 3t6 4t5.5 4l6 4q3 2 6 3q-3 0 -4 -1q-2 -1 -7 -3q3 1 -3 -3
l-6 -3l-8 -6l2 1q-5 -1 -12.5 -5t-12.5 -6q1 0 -1 -1q-1 -1 -4 -3h-1q0 -1 -1 -1v0h1q3 2 5 2q-2 -2 -6.5 -5t-9.5 -6t-7 -4h-1l-7 -5q0 1 -4 -0.5t-3 -0.5t4 3l-11 -6q-3 -2 -7 -4l-8 -4q-4 -2 -6 -4q-5 -2 -9 -5l-17 -11v1q-6 -4 -16.5 -10.5t-20 -11.5t-19.5 -10
q-12 -7 -21 -12h-2q-3 -2 -9 -5l-11 -5q-5 -3 -6 -5q-4 0 -13 -5t-20.5 -12t-16.5 -10v-1q-9 -6 -28 -17l1 -1q-5 -4 -19.5 -11.5t-20.5 -10.5q1 1 7 4q-10 -4 -28 -16t-27 -15q-2 -2 -4.5 -3.5t-5.5 -2.5l1 1v-1h-1.5t-2.5 -1t-3 -2q3 2 5 3q-1 -1 -2.5 -2t-3.5 -2t-3.5 -2
t-3.5 -2h-2q-1 0 -1 -0.5t-1 -0.5l-3 -2h3l-6 -4q-2 0 -8.5 -4t-9.5 -5q-1 -1 -12.5 -8.5t-12.5 -9.5l1 1q-4 -1 -5.5 -2.5t-4.5 -2.5l-5 -3h-3l-11 -9q-7 -3 -7.5 -2.5t3.5 3.5q-8 -5 -14 -9t-13 -9l1 1q-2 -1 -4.5 -2.5t-4.5 -3t-4 -2.5t-3 -2q-7 -2 -40 -20.5t-47 -25.5
q3 0 -3 -3q-12 -5 -12 -6l-1 -1l-1 2q-5 -4 -11.5 -7.5t-11.5 -6t-9 -6.5l1 2v1q-4 -4 -6 -4q0 1 4 4q-4 -3 -6.5 -4.5t-4.5 -3t-3 -2.5t-1 -2t-0.5 -1.5t-0.5 -1.5q-3 -1 -5 -2.5t-4 -2.5t-4 -2.5t-3 -2.5l-2 -1q-4 -1 -2 1q1 0 5 3q-33 -18 -33 -20q-1 0 -4 -2t-5 -3
q-12 -7 -12.5 -7t-14.5 -9l4 3q-2 -3 -5 -5q1 -1 4 -7q2 -4 2 -5q1 0 1 -2l2 -2h-1q6 -11 9 -15.5t8 -15.5l1 2q1 0 3.5 -5.5t6.5 -13.5t7 -13l-2 5q2 -3 4 -8.5t3.5 -11.5t3.5 -8q0 -1 -2 2l-1 2l5 -10v1q1 0 4 -3q0 -1 1 -3q1 0 -0.5 -1t1.5 -6q1 -1 10.5 -15.5
t12.5 -21.5q-1 3 0 3l3 -3q1 -2 7.5 -16t10.5 -19h1v-2q1 -2 4 -6t5.5 -8t5 -7.5t3.5 -4.5q0 -2 1.5 -5.5t3.5 -7.5t5 -8.5t5.5 -8.5t4.5 -7.5t3 -6t0 -2.5l13 -22q5 -10 9 -15q1 -2 2 -3.5t2.5 -3t1.5 -2.5l1 -2h-1q1 -2 4 -6q1 -3 2 -4q2 1 4.5 2.5t4.5 2.5l4 2q4 3 8 5
q4 3 16 11h2q1 1 4 3l7 3l9 5l10 4q5 3 11 6.5t10 6.5q0 -1 -2 -2q9 6 24.5 13.5t26 13.5t12.5 10l15 10l-9 -3l2 1v2l14 6l-3 -2h-1q-1 -2 8 2l17 9q21 12 59 32.5t54 29.5h-5l12 7h3l-6 -4q2 0 5.5 2.5t6 4.5t2.5 3q11 4 0 -3l7 4l-1 -1q11 8 16 11q4 2 5 2t2 1l4 2l16 9
l-7 -2q2 1 7 4v2q2 1 8 3.5t12.5 6t14 8t14 8t11.5 6.5t6 3q10 7 31 19q-2 -1 -2 0l7 5q-1 -3 7 1q1 1 6 3q13 7 17 8q-3 -1 2 2q1 1 6 4l11 7h-3q5 2 5 1t3 0q11 8 36 21t36 19l-1 1q-2 -1 1 2l15 5q2 2 3 3.5t3.5 3t6.5 2.5q-4 0 0 2q16 8 37.5 20t38.5 22t38.5 22
t39.5 20q-6 -2 -3 0l5 3h-1v1l22 10q2 2 12.5 8.5t11.5 7.5l-6 -4q3 4 -2 3q-14 -3 -14 -2q-3 -4 -19 -11t-24 -13l1 2q-2 -2 -4.5 -4t-5.5 -3.5t-8 -4.5l1 1q-12 -7 -21.5 -12t-23 -12t-23.5 -12h3q-3 -2 -5 -3l-4 -2h-2q-3 -3 1 -1q1 1 4 2l8 4l-1 -1q-5 -1 -26.5 -13.5
t-25.5 -12.5q-4 -2 -4 -3h2q-1 -1 -4 -2l-3 -1l-2 -2q-9 -5 -11 -4q1 0 4 2l2 1q-5 -2 -15 -8t-11 -6l10 4q-9 -5 -39.5 -22.5t-44.5 -26.5l2 1l-10 -7q-5 -3 -7.5 -4t-7.5 -3.5t-12 -6.5q-3 -2 -7 -4.5t-8 -5.5q2 2 0 1h-4q-7 -4 -9.5 -6t-4 -3t-2.5 -2l-2 -2q-2 -2 -5 -4
l-4 -1q-1 -1 -2.5 -2t-2 -1.5t-2 -1.5t-3.5 -2.5t-5 -3.5l1 2q-3 0 -2.5 0.5t3.5 2.5q-12 -6 -25.5 -14.5t-19.5 -9.5q-5 -6 7 1q2 1 5 3l3 1q2 1 1 0q-4 -4 -16 -10q-2 -1 -11.5 -4.5t-20.5 -9.5q1 0 2 1t2 1q-3 -1 -10 -5.5t-12 -6.5q-2 -2 -4.5 -3.5t-4.5 -3t-2 -2.5
l16 10q-2 -2 -8 -6t-11.5 -7.5t-12.5 -7.5l8 7q-3 -1 -7 -4t-7 -4q0 1 3.5 3.5t8 4.5t9.5 5.5t8 5.5q-2 0 -9 -5q-5 -3 -5 -2q-2 -3 -7 -5.5t-11.5 -6t-10.5 -7.5v2q-7 -5 -9 -6l5 5q-5 -4 -15 -8.5t-14 -7.5l12 5h3q-10 -6 -15 -8t-11 -4t-18 -9l11 4l-2 -1q-4 -2 -8.5 -4
t-7.5 -3q-8 -5 -7 -5l2 1l1 -1q-3 -1 -5 -2.5t-5 -4t-6 -3.5l-1 1q-11 -6 -12.5 -8.5t-10.5 -7.5l7 7l-10 -6l2 2q-10 -6 -22 -13q-2 0 -3 -1q2 0 1 -1q-1 -2 -10 -7q-9 -4 -10 -5q6 6 12 8l1 1q1 1 1 2q-1 -1 -21 -12q4 2 5 2l-18 -12q-3 -1 1 2q-2 -1 -5.5 -3.5t-6.5 -4.5
q2 4 8 8l-17 -11q-1 0 -4 -2q-6 -2 -4 -1q-5 -2 -11 -6t-13 -8l-13 -8q-1 -1 -5 -4q-3 -1 -6 -2.5t-6 -3.5t-6 -3q-5 -2 -9 -5q-1 0 -2 -2l-1 1v2v1v1q-3 5 -2 1t-0.5 -2.5t-4.5 7.5q-5 7 -4 8.5t0 2.5q-14 18 -19 30q1 -2 2.5 -3.5t2.5 -4t2 -3.5zM79 205l1 -1q5 -7 5 -9
q-2 2 -6 10zM99 376q-3 -2 -9 -5q4 3 9 5zM698 727zM711 734v1q0 -1 -2 -2l-4 -2l2 1q2 0 4 2zM535 205l-3 -1q4 1 3 1zM75 360h-2h2zM218 41l1 1zM519 611q-4 -2 -6 -2q0 -1 6 2zM778 775l-8 -5q3 2 6 3h1q-1 1 1 2zM848 789q0 -1 1 -3l1 -1l1 1q-4 6 -4 5zM788 775
q1 -1 12 6l-1 -1q-1 2 -11 -5zM801 782q3 1 5 3zM727 744l2 2l1 1l-8 -6zM794 774h-2l-3 -3zM748 749l10 5l2 2q-2 -1 -5 -3zM760 756l4 2q2 1 3 2q-4 -2 -7 -4zM782 766l-3 -1l-6 -3zM650 693l-10 -6l5 3zM682 707q-2 -1 -4 -1q-1 0 -1 -1l1 -1zM653 690l-4 -3
q-3 -2 -2.5 -2t5.5 3l2 2h-1zM501 606l2 2l-2 2v-4zM371 525q6 3 7 4t6 4q2 1 -3 -1t-3 -1q-2 -1 -5 -3q-5 -4 -2 -3zM378 531l3 2q-2 -1 -3 -2zM1002 468l8 4l-5 -2zM1016 478h2l4 4q-5 -3 -6 -4zM70 228v1q0 -2 3 -7zM128 124l-1 2v-4zM179 38q0 1 -1 2q-4 6 -5 9
q2 -3 4 -8q2 -2 2 -3zM207 294l17 9l18 -31l114 67l-31 53l-136 -78l-8 14l151 88l48 -83l-130 -75l30 -51q4 -10 12 -11.5t18 4.5l88 52q23 12 15 31q-6 15 -11 28q10 3 20 4q0 -3 3 -9q4 -13 6 -18t2.5 -10t0 -9.5t-2 -8.5t-4.5 -8t-7.5 -7.5t-9.5 -6.5l-94 -54
q-17 -10 -30 -7.5t-21 17.5zM441 492l17 9l33 -58l80 46l8 -15l-79 -46l50 -86l95 55l7 -14l-187 -108l-8 13l77 44zM598 588l15 8q1 -2 2 -4.5t2.5 -5t2.5 -4.5t2.5 -4t2.5 -4l43 24q7 -12 13.5 -24t12.5 -24q15 -25 -12 -39q-13 -8 -15 -10l-5 5l-8 8q4 2 17 9q15 8 7 20
q-12 25 -17 34l-31 -17q25 -45 5 -90q-1 1 -4 2q-5 1 -8.5 2t-5.5 1q10 20 10 39t-10 38l-27 -15l-7 12l27 16q-3 5 -5 10q-4 9 -7 13zM662 399q39 42 50 86l-71 -42l-8 14l85 49l-12 21l14 9l12 -22l87 50l8 -13l-73 -43q39 -11 98 3q0 -1 -0.5 -4.5t-1.5 -7.5v-4v-3
q-63 -11 -108 5l34 -59l-14 -8l-34 59q-10 -50 -48 -98l-6 3q-9 4 -12 5zM681 613l70 40l41 -69l-70 -41zM703 608l26 -44l41 24l-26 44z" />
    <glyph glyph-name="uniE626" unicode="&#xe626;" 
d="M698 -87l-186 186q-12 11 -12 27.5t12 28.5q8 8 18 10.5t20.5 0t17.5 -10.5l130 -129l256 255q7 8 17.5 10.5t21 -0.5t17.5 -10q12 -12 12 -28.5t-12 -28.5zM319 531v281h-212q-44 0 -75.5 -31t-31.5 -76v-712q0 -44 31.5 -75.5t75.5 -31.5h531q6 0 12.5 1t13.5 3
l-180 180q-24 24 -24 57t23.5 56.5t56.5 23.5t57 -24l101 -101l46 47v295h-319q-44 0 -75 31.5t-31 75.5zM350 562q0 -14 4 -28t10.5 -25.5t16.5 -21.5t21.5 -17t25.5 -10.5t29 -3.5h287l-394 356v-250z" />
    <glyph glyph-name="uniE627" unicode="&#xe627;" 
d="M591 730q19 -6 35 -18t28 -29t18.5 -38.5t5.5 -44.5l-1 -59v-3q0 -1 -2 -3.5t-6 -2.5l-329 6q-9 1 -9 11l1 57q0 19 5 36t13 31.5t19.5 26.5t25.5 20t29 13q7 2 11 7t4 9q0 5 1 40q0 11 6 16.5t11 6.5h6l93 -2h2q1 0 5 -1.5t7 -4t5 -7t2 -10.5l-1 -40q0 -13 15 -17z
M643 119q-4 0 -8 2t-7 4.5t-4.5 7t-1.5 8.5q0 9 6 15.5t15 6.5h116v119h-116q-9 0 -15 6.5t-6 15.5t6 15t15 6h116v10q0 70 -49.5 119.5t-119.5 49.5h-171q-46 0 -85 -23t-61.5 -61.5t-22.5 -84.5v-418q0 -66 46.5 -96t122.5 -30h171q76 0 122.5 30t46.5 96v39h-116
q-9 0 -15 6.5t-6 15.5t6 15.5t15 6.5h116v119h-116z" />
    <glyph glyph-name="uniE628" unicode="&#xe628;" 
d="M125 439q-44 0 -72 -33.5t-28 -85.5l39 -417q7 -103 97 -103h54h17h13q6 0 12 2t12 5v632h-144zM1004 162q0 27 -9 47t-26 32q4 2 9 8t9.5 14.5t8 18.5t6 21.5t2.5 21.5q-1 45 -40 74t-102 29h-224q8 23 13.5 48t8 50.5t3 51t-2.5 50.5t-8 47.5t-13 43t-18 36.5
q-20 32 -43 44.5t-45 12.5q-19 0 -34 -6t-24 -16.5t-14.5 -21t-8 -24t-3 -22t-0.5 -17.5q0 -63 -7.5 -100t-21.5 -71q-5 -10 -19 -25.5t-37.5 -34t-47.5 -30.5v-628q12 -6 22 -10q41 -18 93 -18h311q77 0 116 28t39 79q0 25 -15 46q34 9 56.5 30t22.5 54q0 14 -5.5 30.5
t-13.5 21.5q19 5 40.5 31t21.5 54z" />
    <glyph glyph-name="uniE629" unicode="&#xe629;" 
d="M1017 495q2 -3 3 -2q-2 3 -3 2zM983 549l1 -1l-6 8zM954 601q0 -3 7 -13.5t8 -14.5l1 -2l4 -3q-2 3 -5.5 8.5t-6 9.5t-5 8.5t-3.5 6.5zM942 631l-1 1l4 -7v1q-1 1 -3 5v0zM945 626zM930 651l5 -7q0 1 -1.5 4.5t-0.5 1.5l-4 5q0 -1 1 -4zM925 657l2 -3q0 1 -2 3zM932 646
l-5 8v-1q0 -1 3 -3q-1 0 2 -4zM935 641l2 -6l-3 4q4 -6 5 -8h1q-1 4 -5 10zM950 603l3 -6l3 -4q-1 1 -2 3.5t-2 4.5zM905 697v-2l1 -2l3 -5q0 1 -1 2q-3 6 -3 7zM906 693l-6 8zM922 657l9 -12l-10 15zM888 727l4 -4l-6 8zM877 748v1l1 1q-4 5 -10 13q4 -6 9 -15zM863 770
q2 -2 5 -7zM893 714v1l-3 6l1 -3q0 -1 1 -1q0 -2 1 -3zM891 717v1q-1 1 -2 3l-2 3q1 0 2 -3zM893 714v0v0zM911 679q0 1 -2 3l-4 5q-1 -1 1 -4q1 -1 1.5 -0.5t3.5 -3.5zM894 709l5 -9q0 1 1 0zM891 713l3 -4l-2 3zM870 755q-1 2 -2 5l-5 7q4 -8 8 -15q1 -1 1 0t-2 3z
M880 737v0v0zM827 804h1v1zM871 751q1 -2 2 -3.5t1.5 -2.5t1.5 -2v1q-1 1 -1.5 2t-1.5 2.5t-2 3.5v-1zM856 782q0 -2 1 -3.5t2 -3.5q-2 6 -3 7zM879 739l1 -1zM879 739q0 1 -3 4q3 -4 4 -6q0 1 -1 2zM815 788q0 4 18 11q2 1 3 2q2 -2 2 1q0 1 -1 4q-3 1 -9 -2q0 -1 -2 -2
q-1 0 -2 -1t-2.5 -2t-3.5 -2q1 0 4 1q1 1 4 2t4 2q8 4 2 0q-5 -3 -7 -4.5t-4 -1.5q0 -1 -1 -1q-3 -1 -4 -1q2 0 -5 -5q-5 -5 -5 -6l9 6v-1zM847 795l2 -4q-1 1 -2 3.5t-1.5 4t-1.5 3.5l-2 4l-2 4l-1 2q-10 -6 -11 -7l10 5l10 -17zM858 776q-1 0 -4 3q-2 3 -2.5 3t0.5 -2
q3 -6 5 -8.5t3 -4.5l-3 7l1 -1q1 -2 1 -1.5t-1 3.5q1 -2 2.5 -4t2.5 -4q-1 1 -1.5 2.5t-1.5 3.5l-1 2v0v0q-1 0 -1 1l1 -1v0l-10 16q2 -4 9 -15zM899 690v1v-1zM896 697v-1q2 -2 3 -5v-1v1v-1l2 1l-1 1l-6 15q0 -4 2 -10zM876 737l-8 13l3 -7q3 -6 5 -6v0zM824 803l3 3
q-2 -1 -6 -4l-4 -4zM805 792v2l-4 -4zM120 137l3 -3zM104 167h-1h1zM370 545q-1 0 -4 -1l-8 -4h2q5 3 10 5zM76 369l2 1q0 1 1 2t2 1l-1 -1q-3 -2 -4 -3zM74 362l-8 -3q3 1 8 3zM217 47l4 4l-4 -3v-1zM624 689q-7 -3 -13 -7l4 2q8 3 9 5zM102 142l2 -3q-2 4 -2 3zM597 674h1
l1 1q2 2 4 3l4 2l4 2q-3 -1 -5 -2t-4.5 -2.5t-4.5 -3.5zM793 372v1h1q-1 0 -1 -1zM967 456q-1 0 -3.5 -1.5t-3.5 -2.5zM734 752zM755 758l-2 -1q1 0 2 1zM563 646zM740 755q-2 -1 -5 -2h1zM739 755q2 1 3 2zM729 749q0 1 2.5 2t3.5 2l-1 -1h-1zM486 195h1h-1zM279 478v0v0z
M266 469q2 3 4.5 4.5t4 2.5t4.5 2l-7 1zM160 68l-5 10q3 -4 8 -10l1 1q-2 0 -12.5 18t-12.5 18l-3 7l2 -4q-3 6 -7.5 10.5t-8.5 12.5l-3 8l1 -1l-8 11h1l-10 18q-1 1 -2 2.5t-3 2.5l-2 3q-1 1 -2 3h1l1 -1l-7 10l1 1l7 -12q0 3 -1 5.5t-2 4t-3 3.5t-4 6.5t-5 10.5l6 -9
q-1 3 -2.5 6.5t-4.5 9t-5 10.5q1 -1 2 -4q4 -13 3 -12q-1 0 -3 3q-3 6 -7 13q1 0 -7 14h2l-3 5q-1 1 -2 1.5t-2 2t-2 2.5q-4 8 -5 14l-3 5l1 -2v-3l-4 6q-6 11 -20 33v3l-5 6v2q-2 2 -3.5 2.5t-4.5 6.5q-2 0 -4 6l3 1q3 1 5 2q7 3 11 7v-1v-1q17 11 26 18l12 6q-9 -4 5 7
q2 1 5 3q-6 -2 -8 -2l14 9q3 1 -1 -3l2 2q6 2 3 0q-1 -1 -2 -3l-6 -2l-4 -4q-2 -2 -1 -3q1 1 5 3l-1 -1l3 2l1 1h5v2l20 10q2 1 11.5 8.5t17 13t17.5 11.5q-2 -4 1 -5q-4 -1 -14 -7.5t-15 -9.5l5 2l-1 -1l20 13h2l3.5 2t5.5 2q-3 0 0.5 3t11 7.5t10.5 5.5q2 -1 -6 -5l-5 -3
q3 1 5.5 2.5t4.5 2.5l2 4l4 2t4 2.5t5 2.5q-4 -2 -5 -3l18 9l-3 -1q50 27 52 32l-1 -5l25 24q0 -1 2 -2t2.5 -1.5t-1 -2.5t-5.5 -5q9 5 17 10h-5l1 1q5 2 7 3t5.5 2.5t8.5 3.5q-2 -1 -2 0q1 3 7 7q0 -1 0.5 -2.5t-0.5 -2.5l14 12q-3 -2 0 -2l5 1q-1 0 2.5 2t8.5 5l7 3l-7 -3
q5 3 8.5 5.5t6 4.5t4.5 4t5.5 5t8.5 5q-3 -3 0 -4l6 2q17 19 30 28l4 1l11 8q-14 -15 -35 -32q2 1 3 1l4 2q1 0 5 3q3 1 -2 -3q-3 -2 -5 -3l23 13l4 3l8 6q4 3 4 4l-25 -17q0 1 1 2.5t3.5 4t6.5 5t8.5 5.5t9.5 6q3 1 0 -3l-1 -2q1 1 5 3.5t7.5 4.5t4.5 2l-6 -5q4 2 11.5 7.5
t14.5 8.5q1 1 4.5 2t5.5 2t2 2q-3 -1 -6 0t-3.5 3t1.5 4v1q2 0 4 1t5.5 2.5t6.5 3t6 2.5t4 1q4 1 0 -3q-2 -4 -1 -4q0 1 4 4q2 1 2.5 0.5t5.5 2.5q0 1 8 5q2 2 -1 0q-1 0 -4 -1q3 1 5 2l2 2q2 1 3.5 1.5t4 2t5.5 2.5q-5 0 8 10l7 5q0 -1 3 0q4 2 7.5 4t6.5 4l6 2
q3 2 5.5 3.5t5.5 3t6.5 3.5t6.5 4q1 0 3 1q4 1 4 0l2 2l7 5q5 2 -1 -2l-1 -2l1 1q1 1 3.5 2.5t4.5 3t5 3.5t5 3q-2 0 -8.5 -4t-15.5 -10q-2 4 27 23q9 5 8 3h1q12 7 21 14.5t20 12.5h5v-1v-2q-4 -2 -7.5 -4t-6 -3t-6 -2.5t-5.5 -3.5l9 5q-7 -6 -14 -9l10 5q8 4 17 9t19.5 11
t17.5 9q6 5 5 6l-6 -4q-3 0 3 4q1 1 5 3.5t5.5 4t5 3.5t6.5 4t7 3h3q-2 1 -11 -6q1 2 6.5 4t10 4.5t6.5 5.5l-9 -4q2 1 5 3.5t5.5 4t5.5 3.5l6 4q3 2 7 4q-3 -1 -5 -2t-6 -2q3 0 -3 -3q-2 -1 -6 -4l-8 -5h2q-5 -1 -12.5 -5t-12.5 -5q1 -1 -1 -2q-1 -1 -4 -2q0 -1 -2 -2v0v0
q4 2 5 2q-1 -1 -4 -3.5t-6.5 -4.5t-6.5 -4t-5 -3h-1v1l-7 -5l-4 -1q-4 -1 -3 -0.5t4 3.5l-11 -6q-2 -2 -5 -3t-6 -3t-5.5 -3.5t-4.5 -2.5q-5 -2 -8 -5l-17 -11h-1q-1 0 -21.5 -12.5t-33.5 -18.5h-1q-11 -7 -20 -12h-2q-3 -2 -9 -5l-11 -6q-5 -2 -6 -4q-4 0 -13 -5t-20.5 -12
t-15.5 -9v-2q-10 -5 -28 -17l1 -1q-5 -3 -19.5 -10.5t-20.5 -11.5q1 2 7 5q-10 -4 -28 -16t-26 -15q-3 -2 -5.5 -3.5t-4.5 -2.5l1 1l-1 -1h-1l-2 -1q-3 -1 -4 -2q3 1 5 2q-6 -3 -12 -7h-3l-1 -1l-3 -2h3q-4 -3 -6 -4q-3 0 -9 -4t-9 -5q-1 -1 -7 -4.5t-11.5 -7.5t-6.5 -6l1 1
q-11 -5 -15 -8h-3l-11 -9q-6 -2 -7 -2t3 4q-8 -6 -14 -10t-12 -9v2q-2 -1 -5.5 -3.5t-6 -4.5t-4.5 -2q-5 -2 -20 -10t-34.5 -19t-31.5 -17q3 0 -3 -3q-12 -5 -11 -7h-2v2l-10 -6q-5 -3 -8.5 -4.5t-7 -4t-7.5 -5.5l1 2v1q-4 -4 -6 -4q1 1 4 3q-7 -4 -10.5 -7t-4 -4t-0.5 -3
q-6 -3 -9.5 -5t-7.5 -5l-1 -1q-4 -1 -2 1q1 1 4 3q-32 -18 -32 -20l-9 -5q-2 -1 -6.5 -3.5t-6 -3.5t-3.5 -2t-5.5 -3t-5.5 -3l4 2q-2 -2 -5 -4l4 -8q2 -3 2 -4l3 -4h-1q6 -11 9 -15.5t8 -15.5v1q2 0 3.5 -3.5t3.5 -8t5 -10t6 -9.5l-2 5q2 -4 5.5 -15t4.5 -13q1 -1 -2 2l-1 2
l6 -9q1 0 3 -3l2 -2l-1 -2q-1 0 2 -6q0 -1 10 -15t13 -22l-1 4l3 -4l8 -16q7 -14 11 -18v-2q1 -2 3.5 -5t4 -6t4 -6t4 -5.5t2.5 -3.5q0 -4 6.5 -15t12.5 -20.5t4 -10.5l13 -22h-1l10 -15q1 -1 2 -2.5t2 -3.5t2 -3l1 -2l-1 1q1 -2 3 -5.5t2 -4.5q7 3 14 7l7 4q5 3 16 12l3 -1
q1 2 7 4.5t12.5 6t15.5 8.5t15 9l-2 -1q9 5 24 13t25.5 13.5t13.5 9.5l14 10l-8 -3l2 1l-1 2l15 6q-1 0 -3 -2h-2l9 3q2 0 5 2l11 6q13 7 29 15.5t28.5 15.5t28 15.5t27.5 14.5h-6l13 7h3l-7 -4q3 1 6.5 3t6.5 5l2 2q10 5 0 -3l7 4l-2 -1q11 9 16 12q4 2 5 1.5t2 0.5l4 2
l16 9l-7 -2q2 2 7 4v2q5 1 20 9.5t29.5 16.5t16.5 9q10 7 31 19q-2 -1 -3 -1l8 6q-1 -3 6 1l6 3q13 6 17 7q-3 -1 2 2q2 2 6 4l10 8l-2 -1q5 3 5 2t3 0q11 7 36 20t35 20h-1q-2 0 2 2l14 6q1 0 4.5 3t9.5 6q-4 -1 -1 1q17 8 38 20t38 22t38 21.5t39 20.5q-6 -3 -2 -1l5 3
l-2 1v1l22 10q2 2 13 8t11 8l-6 -4q3 3 -2 2q-13 -3 -13 -2q-3 -2 -8.5 -5t-11 -5t-12 -6t-11.5 -8v1v1q-2 -2 -6 -5t-12 -6l1 1q-3 -2 -67 -37h3q-5 -2 -9 -4l-2 -1q-3 -2 1 0q1 0 4 2l8 3l-1 -1q-5 -1 -26.5 -13t-25.5 -12q-4 -2 -3 -3h1l-4 -2l-3 -1l-1 -2q-10 -5 -11 -4
q1 0 3 1.5t3 2.5q-3 -1 -6 -3l-6 -4q-3 -2 -6 -3.5l-5 -2.5l-3 -2l9 5q-8 -6 -38.5 -23t-44.5 -26h2q-10 -6 -18.5 -10.5t-18.5 -10.5l1 1q-3 -2 -7 -4.5t-9 -5.5q2 2 1 1l-5 -1q-7 -4 -22 -16l-4 -1q-1 -1 -2.5 -2t-2 -1.5t-2 -1.5t-3.5 -2.5t-5 -3.5v2q-2 -1 -2 0l3 2
q-11 -5 -24.5 -13.5t-19.5 -9.5q-5 -5 7 1q2 1 5 3l3 1q2 1 1 0q-3 -4 -15 -10q-3 -2 -9 -4l-5 -2q-1 0 -4.5 -1t-7 -3t-7.5 -4q1 1 2 1.5t2 0.5q-3 -1 -10 -5.5t-12 -6.5q-1 -2 -6 -4l-4 -4l16 9q-3 -1 -7 -4t-7 -5.5t-8 -5.5t-11 -5q1 0 3.5 2t4.5 4q-2 -1 -6.5 -3.5
t-6.5 -3.5q0 1 5 4l12 8q8 4 12 7q-2 -1 -9 -6q-6 -2 -5 -2q-2 -2 -6 -4l-6 -4l-9 -4.5t-8 -5.5v1q-7 -5 -9 -6l5 5q-4 -2 -9 -5t-10.5 -5.5t-9.5 -4.5l12 5h3q-12 -8 -21 -10.5t-22 -10.5l10 4l-1 -1q-12 -6 -16 -7l-8 -5l2 1l2 -1q-3 -1 -5.5 -2.5t-5.5 -4t-5 -4.5l-1 2
q-7 -4 -10 -6t-2.5 -2.5t-2 -2.5t-8.5 -5l6 6l-9 -6l1 3q-7 -5 -10.5 -7t-13.5 -7l1 -1q-1 -2 -10 -7q-3 -2 -3 -1l-7 -4q5 6 11 8q1 0 2 1t1 2q-2 -1 -21 -12q3 2 5 2l-18 -12q-3 -1 1 2q-1 -1 -4.5 -3.5t-7.5 -4.5q2 4 5 6q2 1 3 2l-17 -11q-1 0 -4 -1q-5 -3 -4 -1
q-5 -3 -17.5 -11t-19.5 -12q-1 -1 -4 -3l-10 -5l-8 -4q-2 -1 -3 -2t-3 -2t-3 -1l-3 -2v2v2q-3 5 -2 3v-4q-1 1 -5 7q-6 8 -4.5 9t0.5 2q-14 18 -19 30q2 -2 4 -5.5t3 -5.5zM79 209q5 -8 6 -10q-3 2 -6 10zM98 379q-2 -2 -9 -5zM693 728zM706 735h1q-1 0 -3 -1t-4 -3
q1 0 2.5 1t3.5 3zM531 209l-2 -1q3 2 2 1zM74 363h-1h1zM217 47v0v0zM515 612l-3 -2h-2zM772 775l-8 -5q4 2 7 3l1 1v1zM842 789q1 -1 1.5 -2t0.5 -2l1 1q-4 6 -4 5zM782 775q1 -1 12 6l-1 -1q-1 2 -11 -5zM795 782q3 2 6 3zM722 744q1 1 1.5 2t1.5 1l-8 -5zM789 774h-3
l-3 -3zM743 750l10 4l2 2q-2 -1 -5 -2zM755 756q1 1 2.5 2t2.5 1.5t2 1.5q-1 -1 -2 -1.5t-2.5 -1.5t-2.5 -2zM777 767l-3 -2l-7 -3zM645 694l-10 -6l6 3zM677 708l-4 -2h-1l1 -2zM648 691l-3 -3q-4 -2 -3.5 -2t5.5 3l3 2h-2zM497 608l3 1l-2 3zM369 527q6 3 6.5 4t6.5 4
q1 1 -4 -1q-4 -2 -3 -1q-2 -1 -4 -3q-6 -4 -2 -3zM375 533h1l2 2l-2 -1q0 -1 -1 -1zM995 470l8 4l-5 -2zM1009 481l2 -1l4 4q-5 -3 -6 -3zM70 232l-1 1l3 -7zM127 129l-1 2v-5zM178 44q-1 2 -3 5l-4 6q3 -4 5 -9zM97 302q2 0 6 -1q26 -1 38 -3l-3 -17q-5 1 -13.5 2t-20.5 3
q-7 1 -10 1zM149 282q1 0 3 -1.5t5 -3.5t8 -4q-6 -14 -12.5 -29.5t-12.5 -31.5l-17 6q17 35 26 64zM158 222l127 74l32 -55l-14 -8l-24 42l-100 -58l26 -44l-14 -8zM158 281q7 29 1 62l16 5q2 -9 2 -18l84 49l6 -12l2 -32q-2 0 -5 -1q-7 0 -11 -1l-1 24l-34 -19l1 -1l1 -2
q0 -2 1 -4q26 -24 81 -5q-1 -4 -2 -16v-4q-50 -11 -76 5q3 -30 -36 -67q-1 0 -2.5 0.5t-4 2t-4.5 2.5q-3 1 -5 2q51 45 32 78l-26 -14q0 -18 -3 -35q-9 1 -17 1zM243 239q6 -12 9 -23q20 3 55 9q14 2 24 3.5t16 2.5l2 -17q-2 -1 -4 -1t-4.5 -0.5t-5 -0.5t-5 -0.5t-5.5 -1.5
h-6q-3 -1 -6 -1q-38 -5 -60 -8q-1 -29 -59 -79q-1 0 -2.5 1.5t-4.5 3.5q-5 3 -8 4q66 52 58 78q-1 9 -8 22zM339 292q0 14 -1 27.5t-3.5 27.5t-7.5 27l-24 -14l-7 13l25 15l-20 35l13 8l20 -36l23 13l7 -13l-22 -13l13 -22l4 10q2 -1 5 -1.5t7 -1.5l8 -2q4 -1 9 -1l-5 -15
q-18 6 -27 8l61 -106l-12 -7l-59 101q5 -19 7 -35.5t0 -30.5q-6 6 -14 13zM367 383q5 20 5.5 40.5t-2.5 40.5l16 5q0 -3 1 -9q1 -9 1 -13l65 38l7 -13q0 -10 -1.5 -20.5t-4 -21t-5.5 -20.5q13 -1 28 1t32 9v-20q-43 -10 -67 -5q-11 -26 -39 -60q-8 4 -17 7q31 34 40 56
q-19 3 -40 13q-1 -17 -4 -33q-3 2 -12 4zM444 464l-57 -33v-2q11 -7 22.5 -11t23.5 -6q1 2 2 4.5t2 5.5t1.5 5.5t1 5.5t1.5 6t1.5 6t0.5 6t0.5 6t0.5 7zM412 341l91 53l41 -69l-15 -9l-5 10l-63 -36l6 -10l-15 -8zM434 337l20 -35l63 36l-21 35zM545 382q3 2 10 7l4 4
l-65 113l-12 -7l-7 13l84 49l8 -13l-10 -6l60 -103q8 8 17 14q1 -2 3 -5t4 -7q-1 -2 -2.5 -3.5t-3.5 -2.5t-3.5 -2.5t-3.5 -3t-4 -2.5l24 -41l-14 -8l-22 38q-37 -29 -58 -47zM508 514l16 -28l35 20l-16 28zM531 474l16 -28l35 21l-16 28zM572 403q16 13 33 26l-16 26
l-35 -21zM573 544l-7 12l81 47l6 -11q28 -71 27 -119q29 -13 62 -12q0 -2 -1 -9q-1 -4 -1.5 -6.5t-1.5 -4.5q-8 2 -16 3t-15.5 3t-14.5 4.5t-14 4.5q-3 -30 -19 -64q-1 1 -4 2t-8 3q-3 2 -4 2q5 10 9 20.5t7 21.5t5 23q-42 21 -85 83zM640 582l-48 -27q18 -26 36 -44t36 -29
q-1 45 -24 100zM676 638q4 -1 7.5 -2t9.5 -2l12 -2q5 -1 8.5 -1.5t6 -1t3.5 -1.5l-4 -16q-21 6 -46 9zM697 586q28 -4 46 -6l-3 -17q-25 5 -46 7zM721 648l5 15q5 -1 11.5 -3.5t16.5 -5.5q11 -4 17 -5l-8 -17q-9 4 -19.5 8t-22.5 8zM741 541q4 1 8.5 1.5t8.5 1.5
q15 -52 24 -79l-18 -5q-11 44 -23 81zM766 692l13 8l30 -51l50 29l59 -102q15 -22 -11 -37q-12 -8 -27 -16q-1 2 -3 5l-4 4q-2 3 -4 4q7 3 28 15q3 2 5 3.5t3 3t1 3.5t-0.5 4t-1.5 4l-9 16l-86 -50l24 -41l-13 -8l-74 127l49 28zM768 607l13 -23l85 50l-13 22zM788 571
l14 -23l85 49l-13 24zM815 673q2 5 3.5 11.5t2.5 15t2 19.5l18 -2q-2 -12 -7 -34q-1 -5 -1.5 -8t-1.5 -5z" />
    <glyph glyph-name="uniE62A" unicode="&#xe62a;" 
d="M1020 494q1 -2 2 -2h1q-3 4 -3 2zM986 549l1 -1l-6 7zM956 601q0 -2 2 -5.5t4.5 -7t5 -8.5t4.5 -8v-1l4 -4q-2 4 -5.5 9t-5.5 9t-5 8.5t-4 7.5zM944 631h-1l5 -7l-1 2q0 1 -3 5zM947 626zM932 651l5 -7q0 1 -1.5 4t-0.5 2l-4 5q0 -1 1 -4zM927 657l3 -4q-1 2 -3 4z
M935 646l-5 7l2 -3l1 -2zM937 641q3 -6 2.5 -6t-2.5 3q3 -5 5 -8v1q-1 3 -5 10zM953 602l2 -5l3 -5q0 1 -2 4l-2 5q-1 2 -1 1zM908 697v-2v-2l3 -5q-3 8 -3 9zM908 693l-5 7zM924 657l9 -12l-10 15zM890 727l4 -4l-6 7zM879 747v2h1q-3 6 -10 14q5 -6 9 -16zM865 770
q2 -2 5 -7q-2 4 -5 7zM895 714q0 3 -2 7v-4l1 -1zM893 717q0 1 -1 3l-2 4l1 -3zM896 713l-1 1zM913 679l-2 2l-4 6q0 -1 1 -5q1 -1 2 -0.5t3 -2.5zM896 709l5 -9q1 1 1 0zM894 713l2 -4l-1 3zM873 755q-2 2 -3 5l-5 7q4 -8 8 -15v-1q2 0 1 1zM883 736l-1 1zM829 804h1v1z
M873 751q1 -2 2 -3.5t1.5 -2.5t1.5 -2q-3 5 -5 9v-1zM858 782q1 -2 1.5 -3.5t1.5 -3.5q-2 6 -3 7zM882 739v-1v1zM882 739l-4 4l4 -6v2zM817 788q0 1 6 5t13 6l2 2q2 -2 2 1q0 1 -1 4q-2 0 -9 -2q0 -1 -2 -2t-8 -5q1 0 2 0.5t2.5 1t3 1.5t4.5 2q8 4 2 0q-5 -3 -7 -4.5
t-4 -1.5l-1 -1l-4 -1q2 0 -5 -5q-7 -6 -5 -6l10 6l-1 -1v0zM849 795l2 -4q-1 1 -2 3.5t-2 3.5q0 2 -2 6l-3 6l-1 2q-10 -6 -11 -7l10 5l10 -17zM860 775q-1 1 -3 4q-4 5 -3 1l3 -6l1 -2l2 -2l3 -3l-4 7l1 -1q1 -2 1.5 -1.5t-1.5 3.5q1 -1 2 -2.5t1.5 -3t1.5 -2.5q0 1 -1 3
l-2 2q-1 2 -1 3v0v0h-1v1l1 -1v0l-10 16q2 -5 9 -16zM901 690zM898 697q3 -4 4 -6v-1h-1h1h1l-1 1l-6 16zM878 736l-8 14l3 -8v1q3 -5 5 -7zM826 803l3 3l-1 -1l-5 -3l-4 -4zM807 792v2l-4 -4zM120 136l3 -4q-2 2 -3 4zM104 165h-1h1zM371 544q-2 0 -5 -1l-7 -4h2q5 3 10 5z
M76 368q1 1 2 1q0 1 2 2l1 1q-4 -3 -5 -4zM74 361l-8 -3q2 0 4 1zM218 45l4 4l-4 -3v-1zM626 689q-8 -4 -13 -7q12 5 13 7zM102 140l2 -3q-2 4 -2 3zM598 674h1l2 1q3 2 6 3.5t6 3.5q-5 -2 -8.5 -4t-6.5 -4zM795 371l1 1zM969 455q-1 0 -3 -2l-4 -2q2 1 7 4zM736 752z
M756 758l-1 -1q1 0 1 1zM564 645zM742 755l-4 -2l-1 -1v1q3 1 5 2zM741 755q1 1 3 2q1 1 -3 -2zM730 749q1 1 3 2t4 1h-1h-1q-2 -2 -5 -3zM488 193l1 1zM280 477v0h-1h1zM266 469q6 4 13 8l-6 1zM160 66l-4 10q3 -3 7 -10l1 1l-2 2q-2 2 -4 5t-4 7t-4.5 8t-4.5 7t-3.5 5
t-2.5 2l-3 7l1 -2q1 -1 1 -2q-2 7 -7 11.5t-9 12.5l-3 7l1 -1l-7 11h1l-11 18q-1 2 -4 5t-4 6v1l1 -2l-7 10l1 1l8 -11q-1 4 -2.5 6.5t-3 4t-4.5 6.5t-6 13l6 -10q0 2 -1 5l-2 4q-1 3 -2.5 5.5t-3 5.5t-2.5 6l1 -4q5 -13 3 -12q-1 1 -2 3q-3 7 -8 13q1 1 -5 11l-2 3l2 1
q-2 3 -4 4l-2 4l-3 2q-4 9 -5 15l-3 4l1 -2q1 -2 0 -3l-4 6q-3 6 -6.5 12t-5.5 9.5t-8 12.5q1 2 0 2l-5 7v1q-2 3 -3.5 3.5t-4.5 5.5q-2 1 -4 7l8 3l4 2q2 1 3.5 2t3.5 3v-1v-1q17 11 26 18l12 6q-9 -4 5 6q2 2 5 4q-6 -2 -8 -3l14 10q3 1 -1 -3l3 2q5 2 2 0q0 -1 -2 -3
l-6 -2q-3 -3 -4.5 -5t-0.5 -2l2 2l3 1l-1 -1l4 3h5v2l21 10q35 26 46 33q-4 -3 -1 -4q1 0 1 -1q-2 0 -4.5 -1.5t-5 -3.5t-5.5 -4t-6.5 -4t-7.5 -4l5 2l-1 -1l20 13h2l4 2q3 1 5 2q-3 0 1 3t11.5 7.5t9.5 5.5q2 -1 -6 -5l-5 -3q7 2 13.5 8t12.5 8q-5 -2 -5 -3l17 9l-2 -1
q9 5 20.5 11.5t21 12.5t10.5 8v-2q-1 -2 -2 -3l26 25q0 -1 3.5 -4t-5.5 -8l4 3q2 1 5.5 3t7.5 4h-6l1 2q3 0 22 8q-2 -1 -2 0q1 3 7 7v-2q1 -1 0 -2l14 12q-3 -3 0 -3l5 1q-1 0 2.5 2t8.5 4.5t7 4.5l-7 -4q9 5 17 12.5t16 12.5q-3 -4 0 -4q2 0 6 2q17 19 30 28h4l11 8
q-2 -2 -6.5 -6t-9.5 -8l-10 -10q-5 -4 -9 -8l12 6q3 1 -2 -3q-3 -1 -5 -3l23 13q0 1 4 4t8.5 6t3.5 3l-25 -16q-1 0 3 4t11 9t15 9q3 1 1 -3l-2 -2q9 9 17 11l-6 -5q4 2 11.5 7.5t14.5 7.5q1 1 4.5 2t6 2t2.5 2q-4 -1 -6.5 0.5t-3 3.5t0.5 4q22 10 26 11t0 -3q-2 -4 -1 -5
l5 5q1 0 2 -0.5t5 2.5q1 2 8 6q2 1 -1 0q-1 -1 -3 -2q3 2 5 3.5t3.5 2t4.5 2t6 3.5q-5 -1 9 10l6 4h1h2q9 5 22.5 12t22.5 12l3 1l4 1l2 1q1 2 3 3l4 2q5 2 -1 -1q-2 -2 -2 -3q0 1 19 14q-3 0 -23 -14q-3 4 26 22l9 4v0q13 7 22 14t20 13q4 -1 5 -1v-2q-5 -3 -10 -5l-8 -4
q-5 -2 -7 -4l9 5q-2 -2 -7 -5t-8 -4q2 0 4 1t4.5 2.5t5.5 3t6.5 3.5t7.5 4t7.5 4.5t7.5 4.5t7.5 4t7.5 4l6 3q7 5 6 6l-6 -4q-3 0 3 4q1 1 4.5 3.5t5.5 3.5t5.5 3.5t6.5 4.5t7 3h3l-4 -2q-5 -2 -7 -4q1 1 11 6t12 7l-9 -3q2 1 6.5 4t7 5t7 5t8.5 5q-3 -1 -4 -1.5t-2 -1.5
l-5 -1q3 0 -3 -3q-2 -2 -6 -4l-8 -6l2 1q-2 -1 -4 -1.5t-3.5 -1t-3 -1.5t-3 -1.5t-3.5 -1.5l-4 -2l-4 -2q1 0 -1 -1q-1 -1 -4 -2l-2 -2v0v0q2 1 4 1l1 1q-1 -1 -4 -3.5t-6.5 -4.5t-6.5 -4t-5 -3h-1v1l-7 -5l-4 -2q-4 -1 -3.5 0t4.5 4l-11 -7q-13 -5 -21 -11q-5 -2 -9 -5
l-17 -11q-6 -3 -16.5 -9.5t-20 -12t-18.5 -9.5q-1 0 -1 -1q-11 -7 -20 -11h-3q-1 -1 -4 -2.5l-5 -2.5l-6 -4l-4 -2l-4 -2q-2 -1 -2 -2q-5 -1 -14 -6t-20 -11.5t-16 -9.5v-1q-4 -3 -9 -6t-9 -5t-10 -6l1 -1q-5 -4 -19.5 -11.5t-20.5 -10.5q1 1 8 4q-11 -4 -29 -15.5
t-26 -15.5q-3 -2 -5.5 -3t-4.5 -2h1h-1l-1 -1q-1 0 -3 -1t-3 -1l5 2q-2 -2 -5.5 -4t-6.5 -4h-3h-1v-1l-3 -2h3q-2 -1 -3.5 -2t-2.5 -2q-2 0 -6 -2l-6 -4q-4 -2 -7 -2q0 -1 -11.5 -8.5t-12.5 -9.5h-1l2 1q-11 -6 -15 -9h-4l-10 -8l-7 -3l3 4q-3 -3 -6 -4.5t-4.5 -2.5t-2.5 -2
l-2 -2l-4 -2q-1 -1 -3 -2.5t-5 -3.5v2q-1 -1 -3.5 -2.5t-4.5 -3.5l-4 -2q-2 -2 -3 -2q-7 -2 -39.5 -20.5t-47.5 -25.5q4 0 -3 -3q-11 -5 -11 -7h-2v2q-5 -4 -16 -9.5t-16 -10.5v2l1 1h-1q-4 -4 -6 -4q1 1 4 3q-5 -3 -8.5 -5.5t-4.5 -4t-1.5 -2.5t-0.5 -2l-4 -2l-4 -2
q-2 -1 -3.5 -2t-2.5 -2t-3 -2l-1 -1q-4 -1 -2 0l5 4q-33 -18 -33 -20q-3 -1 -9 -5q-2 -1 -5 -3q-5 -3 -7 -4t-3.5 -2t-3 -1.5t-4 -2t-4.5 -2.5l4 2l-2 -2l-3 -3q1 -1 3 -5l1 -2q1 -3 2 -4q2 -3 3 -5h-1q6 -11 9 -15.5t8 -15.5v2q2 0 4.5 -5t6 -13.5t7.5 -13.5l-2 5
q3 -3 6 -14t4 -14q1 -1 -1 3l-2 1l6 -9q1 1 3 -2q1 -1 2 -3l-1 -1q-1 -1 2 -6q1 -2 10.5 -16t12.5 -22q-1 4 -0.5 4t2.5 -3l8 -16q7 -14 11 -19q1 -1 0 -2q2 -2 6 -8.5t7.5 -11.5t4.5 -6q0 -4 7 -15t12.5 -20.5t4.5 -10.5l13 -22h-1q5 -9 9 -15q2 -2 4 -6l3 -3v-2v1
q0 -2 2 -5.5t3 -4.5q6 3 13 7l8 4q5 3 16 12l2 -1q2 2 10.5 6t20.5 10.5t20 11.5l-2 -1q6 3 14.5 8t15.5 9l14 6q7 4 12 7.5t7 6.5l14 9l-8 -3l1 1v2l15 6q-1 0 -3 -2h-2q-1 -2 8 2l17 9q21 12 59 32.5t54 29.5l-5 -1l12 7l3 1l-6 -5q8 3 14 10q11 5 0 -3l7 5l-2 -1
q11 8 17 11q4 2 5 2h2l4 3l16 8l-8 -2q3 2 7 5v1q7 2 36 18.5t31 17.5q10 7 31 19l-3 -1l7 6q-1 -3 7 0q21 11 23 11q-3 -1 2 2q1 1 6 4l10 7h-2q5 2 5 1t3 1q9 5 21 11.5t26 14.5t24 13l-1 1q-2 0 2 2l14 5q1 1 4.5 4t9.5 5q-4 0 -1 2q20 10 48.5 26.5t55.5 31.5t50 26
q-6 -3 -3 -1q2 1 5 3l-1 1v1l22 10q1 2 12 8t12 8l-7 -4q4 3 -2 2q-13 -3 -13 -2q-3 -3 -11 -6.5t-16.5 -8t-15.5 -9.5v1l1 1q-5 -5 -18 -11l1 1q-3 -2 -68 -37h3q-3 -1 -5 -2t-3.5 -1.5t-2.5 -1.5q-2 -2 1 0q1 0 5 2l7 3l-1 -1q-4 -1 -26 -13t-25 -12q-4 -2 -3 -3
q-1 -1 -3 -2l-3 -1l-2 -2q-3 -2 -5.5 -3t-4.5 -1h-1q1 0 3 1.5t3 1.5q-4 -1 -10 -4.5t-10.5 -6.5t-5.5 -3l9 4q-8 -5 -38.5 -22t-44.5 -27l2 1q-10 -7 -18.5 -11t-18.5 -10v1q-2 -3 -6.5 -5.5t-8.5 -4.5q2 1 0 1l-4 -1q-7 -4 -23 -17l-4 -1q-6 -5 -15 -10l1 2q-2 -1 -2 -0.5
t3 2.5q-12 -5 -25 -13.5t-19 -10.5q-6 -5 6 1q2 2 6 3q2 2 3 2q1 1 1 0l-16 -11q-2 -1 -12 -4.5t-20 -8.5l2 1l1 1q-2 -1 -6 -3.5t-7.5 -5t-7.5 -3.5q-2 -2 -6.5 -5t-4.5 -4l16 10q-2 -1 -4.5 -3t-4.5 -3.5t-4.5 -3.5t-5.5 -3.5t-6.5 -3.5t-7.5 -4q2 1 9 6q-3 -1 -7 -3.5
t-7 -3.5q0 1 3.5 3t8 4.5t9.5 6t8 5.5q-2 -1 -9 -5q-5 -3 -5 -2q-2 -2 -4.5 -4t-5.5 -4l-6 -2q-3 -2 -6.5 -4t-6.5 -5v2q-7 -5 -9 -6l5 5q-2 -2 -5 -4t-6 -3t-6 -3l-6 -2q-3 -2 -5 -4l11 5h3q-7 -4 -11 -6.5t-6.5 -3t-5.5 -1.5t-8 -3t-12 -7l10 4l-1 -1q-5 -2 -9.5 -4
t-6.5 -3l-8 -5l2 1l2 -1q-3 -1 -5.5 -2.5t-5.5 -4t-6 -3.5v1q-7 -4 -10 -6t-2.5 -2.5t-2 -2t-9.5 -5.5l7 7l-9 -6l1 2q-9 -6 -24 -14l1 -1q-2 -2 -10 -7l-3 -1l-7 -4q2 2 2.5 3t3 2.5t5.5 2.5l2 2l1 1q-5 -2 -17 -9l-5 -3q2 1 3.5 1.5t2.5 0.5l-18 -12q-4 -1 1 2
q-2 -1 -5.5 -3.5t-6.5 -3.5q2 4 8 7l-18 -11l-3 -1q-6 -2 -4 -1q-5 -3 -17.5 -11t-19.5 -12q-1 0 -2 -1t-3 -2q-3 -2 -9 -5t-8.5 -4.5t-5 -2.5t-3.5 -2l-1 -2h-2h-1v2q0 1 0.5 1.5t-0.5 0.5q-3 5 -2 1q1 -3 0 -2l-5 7q-5 8 -4 9t0 2q-13 18 -18 31q1 -3 3 -6.5t3 -5.5z
M79 208q6 -8 6 -10q-3 3 -6 10zM98 378q-1 -1 -3.5 -2.5t-5.5 -2.5q5 3 9 5zM695 728v-1v1zM708 734v1q-1 -1 -7 -4zM533 208l-3 -2zM75 362h-2h2zM217 45h1v0h-1zM516 612q-1 -1 -2.5 -1.5t-2.5 -1.5zM774 775l-8 -5q3 2 8 4q-1 0 0 1zM844 789q1 -1 1.5 -2t1.5 -2v1
q-4 6 -4 5zM784 775q1 -1 12 6l-1 -1q-1 2 -11 -5zM797 782q3 1 6 3zM724 744l2 2v1l-7 -5zM791 774h-3l-3 -3zM745 749l9 5h1l2 2q-2 -1 -5 -2q-7 -4 -7 -5zM757 756q2 1 4 2.5t3 1.5q-1 0 -2 -0.5t-2.5 -1.5t-2.5 -2zM779 767l-3 -2l-7 -3zM647 694l-10 -6l6 2zM679 707
q-2 0 -5 -1l1 -2zM650 691q0 -1 -3 -3q-4 -3 -3.5 -3t5.5 3q0 1 3 2zM499 607l2 2l-2 2v-4zM370 526q6 3 6.5 4.5t6.5 3.5q1 1 -4 -1q-4 -2 -3 -1q-2 -1 -4 -3q-6 -3 -2 -3zM376 532l3 3zM998 469l8 4l-6 -2zM1011 480l3 -1l4 4q-5 -3 -7 -3zM70 231h-1q1 -1 1 -2l3 -5z
M127 127l-1 2l1 -4v2zM178 42q-1 3 -3 5.5t-3 5.5q2 -4 4 -9zM211 248l85 50l-19 33l-74 -43l-9 14l75 43l-20 33l15 8l19 -33l75 44l8 -14l-75 -44l19 -33l86 49l7 -13l-75 -44q51 -25 116 -19q-3 -11 -3 -18q-65 -3 -120 26l51 -87l-15 -8l-50 87q-2 -66 -35 -121
q-9 6 -17 6q36 55 39 114l-75 -43zM443 486l17 10l33 -58l79 46l9 -15l-79 -46l50 -86l94 55l8 -14l-187 -108l-8 14l76 44zM600 582l14 8q6 -12 12 -22l43 25q14 -25 25 -49q16 -24 -11 -39q-3 -2 -8.5 -5t-6.5 -4q-2 1 -5 5t-8 8q4 1 17 9q15 7 7 20l-17 34l-30 -18
q24 -45 4 -89q-1 0 -2 0.5t-2 1.5q-10 2 -14 3q10 20 10 39t-10 38l-27 -16l-7 13l28 16q-1 1 -1.5 2t-2 3t-2.5 4q-4 10 -6 13zM663 394q39 42 50 85l-71 -41l-8 13l85 49l-13 22l15 8l12 -21l86 50l8 -14l-73 -42q40 -12 98 3q0 -4 -1 -13q-1 -4 -1 -6q-63 -11 -107 5
l34 -59l-14 -8l-35 59q-10 -50 -48 -98q-1 2 -5 3q-9 4 -12 5zM682 607l70 40l40 -69l-69 -41zM704 603l26 -45l41 24l-26 44z" />
    <glyph glyph-name="uniE62B" unicode="&#xe62b;" 
d="M1023 -133l-234 238q21 28 38 59t29 64.5t18 70t6 73.5q0 89 -35 170.5t-94 140.5t-140.5 94t-170.5 35t-170.5 -35t-140.5 -94t-94 -140.5t-35 -170.5q0 -72 22.5 -139t63 -121t94.5 -95t121 -63t139 -22q58 0 113 15t102.5 41.5t87.5 64.5l230 -235zM440 1
q-101 0 -186 49.5t-135 135t-50 186.5t50 186t135 135t186 50q60 0 117 -19t102.5 -53t79.5 -80t53 -102.5t19 -116.5q0 -148 -102 -255q-100 -106 -244 -115q-13 -1 -25 -1z" />
    <glyph glyph-name="uniE62C" unicode="&#xe62c;" 
d="M1024 350h-462v462h-100v-462h-462v-100h462v-462h100v462h462v100z" />
    <glyph glyph-name="uniE62D" unicode="&#xe62d;" 
d="M0 360h1024v-101h-1024v101z" />
    <glyph glyph-name="uniE62E" unicode="&#xe62e;" 
d="M417 794q16 -38 22 -77t3 -70.5t-12.5 -63t-21.5 -54.5t-27 -45q-12 -18 -27 -37t-29 -35.5t-28.5 -31.5t-26.5 -27t-22 -21t-16 -13.5t-7 -3.5q-4 1 -9 30t-7.5 66t1.5 72q6 50 2 50q-2 0 -12 -21q-3 -6 -31 -54.5t-51.5 -93t-46.5 -111.5t-27 -124q-4 -48 10 -93
t36.5 -78t55 -62.5t60 -47.5t57.5 -33.5t40.5 -20t16.5 -6.5l-4 4q-2 2 -9 11t-13 19.5t-12 27.5t-8.5 35t-1.5 42.5t8 50.5q11 45 27 76.5t27.5 44.5t29.5 28t24 22q34 39 30 118q1 -2 4 -5.5t10.5 -16.5t11 -29t7 -42t-2.5 -56q2 2 4.5 5.5t10.5 16.5l16 24q8 13 18 31.5
t18 36t15 38.5t10.5 40t3.5 39t-5 37q-1 3 3 0q24 -15 71 -78q119 -159 110 -298q-3 -44 -8.5 -77t-13.5 -54t-15 -35t-16 -29t-14 -27q6 2 16 5.5t39.5 17.5t57 30.5t62.5 44.5t62 59t49.5 75t31.5 92q21 120 -19.5 245t-124.5 203q-68 65 -72.5 67t-4.5 -4q1 -5 17 -53
q8 -24 12 -47t4 -40t-1.5 -31t-5 -24t-6.5 -15.5t-5 -9.5q-1 -1 -3 3t-5.5 13.5t-9 23t-14.5 32.5t-20 40t-28 48t-36 55q-21 29 -42.5 54.5t-41 44.5t-38 34t-35 25.5t-29.5 17t-25 10.5q-31 11 -31 6q0 -1 7 -16zM417 794z" />
    <glyph glyph-name="uniE62F" unicode="&#xe62f;" 
d="M653 383h-39l-12 -128h70l6 109q0 10 -5.5 14.5t-19.5 4.5zM896 812h-768q-53 0 -90.5 -37.5t-37.5 -90.5v-768q0 -53 37.5 -90.5t90.5 -37.5h768q53 0 90.5 37.5t37.5 90.5v768q0 53 -37.5 90.5t-90.5 37.5zM250 12l19 198h-90q-24 0 -36.5 14t-8.5 38l7 64q0 51 13 102
q2 21 7.5 40.5t20 45t36 43.5t60 31t87.5 13h185h7h19v-7q0 -12 -19 -12h-7h-166q-35 0 -61.5 -12.5t-41 -29t-25 -41t-14 -41t-5.5 -36.5q-6 -23 -9 -47t-4 -37v-12l-6 -58q0 -13 12 -13h39l19 250h77q5 0 9 -4t4 -9l-39 -486h-89v6zM806 12q-16 0 -35.5 4.5t-41.5 15
t-39.5 32t-23.5 50.5q-3 15 -3 34t1 31l2 12h96l-7 -57q-5 -62 51 -90v-32zM890 210h-58h-243q-31 -74 -108 -136t-116 -62v32q20 10 44 34t48 60t36 72h-115l6 45h122l12 128h-121l6 51h122l6 77h83q4 0 7 -1.5t4.5 -4.5t1.5 -7l-6 -64h109q15 0 27 -5.5t18 -16t6 -22.5
l-13 -135h64h58v-45z" />
  </font>
</defs>
</svg>
